<?xml version="1.0" encoding="utf-8"?>
<!-- Generator: Adobe Illustrator 25.4.1, SVG Export Plug-In . SVG Version: 6.00 Build 0)  -->
<svg version="1.1" id="Artwork" xmlns="http://www.w3.org/2000/svg" xmlns:xlink="http://www.w3.org/1999/xlink" x="0px" y="0px"
	 viewBox="0 0 780 440" enable-background="new 0 0 780 440" xml:space="preserve">
<g>
	<g>
		<rect x="0" y="0" fill="#214d4b" width="780" height="440"/>
	</g>
	<g>
		<path fill="#DB61DB" d="M449,97.5c-21.4,0-41.5,5.5-59,15.1c37.9,20.8,63.5,61.1,63.5,107.4c0,46.3-25.7,86.6-63.5,107.4
			c17.5,9.6,37.6,15.1,59,15.1c67.7,0,122.5-54.9,122.5-122.5S516.7,97.5,449,97.5z"/>
		<path fill="#162020" d="M449,343.2c-20.7,0-41.2-5.3-59.3-15.2l-1-0.5l1-0.5c39-21.5,63.2-62.4,63.2-106.9
			c0-44.5-24.2-85.4-63.2-106.9l-1-0.5l1-0.5c18.1-9.9,38.6-15.2,59.3-15.2c67.9,0,123.2,55.3,123.2,123.2
			C572.2,287.9,516.9,343.2,449,343.2z M391.3,327.4c17.6,9.5,37.6,14.5,57.7,14.5c67.2,0,121.9-54.7,121.9-121.9
			c0-67.2-54.7-121.9-121.9-121.9c-20.1,0-40.1,5-57.7,14.5c38.8,21.8,62.9,62.9,62.9,107.4C454.2,264.5,430.1,305.6,391.3,327.4z"
			/>
	</g>
	<g>
		<g>
			<path fill="#162020" d="M179.3,353.4c-1.3,0-2.5-0.5-3.5-1.3c-1.1-0.9-1.8-2.3-2-3.7s0.3-2.9,1.3-4l0,0c0.9-1.1,2.3-1.8,3.7-2
				c1.5-0.1,2.9,0.3,4,1.3c1.1,0.9,1.8,2.3,2,3.7s-0.3,2.9-1.3,4c-0.9,1.1-2.3,1.8-3.7,2C179.7,353.4,179.5,353.4,179.3,353.4z
				 M179.3,343.6c-0.1,0-0.3,0-0.4,0c-1.1,0.1-2.2,0.6-2.9,1.5l0,0c-0.7,0.9-1.1,2-1,3.1s0.6,2.2,1.5,2.9c0.9,0.7,2,1.1,3.1,1
				c1.1-0.1,2.2-0.6,2.9-1.5c0.7-0.9,1.1-2,1-3.1s-0.6-2.2-1.5-2.9C181.3,343.9,180.3,343.6,179.3,343.6z M175.6,344.7L175.6,344.7
				L175.6,344.7z"/>
		</g>
		<g>
			<g>
				<path fill="#162020" d="M195.7,306.6c-0.1,0-0.3,0-0.4-0.1l-8.6-7.2c-0.3-0.2-0.3-0.6-0.1-0.9c0.2-0.3,0.6-0.3,0.9-0.1l8.6,7.2
					c0.3,0.2,0.3,0.6,0.1,0.9C196.1,306.5,195.9,306.6,195.7,306.6z"/>
			</g>
			<g>
				<path fill="#162020" d="M187.9,307.3c-0.1,0-0.3,0-0.4-0.1c-0.3-0.2-0.3-0.6-0.1-0.9l7.2-8.6c0.2-0.3,0.6-0.3,0.9-0.1
					c0.3,0.2,0.3,0.6,0.1,0.9l-7.2,8.6C188.2,307.2,188,307.3,187.9,307.3z"/>
			</g>
		</g>
		<g>
			<path fill="#162020" d="M140.8,314.7c-0.3,0-0.6-0.2-0.6-0.6l-0.8-8.7c0-0.2,0-0.3,0.1-0.5s0.3-0.2,0.4-0.2l8.7-0.8
				c0.3,0,0.6,0.2,0.7,0.6l0.8,8.7c0,0.2,0,0.3-0.1,0.5s-0.3,0.2-0.4,0.2L140.8,314.7C140.9,314.7,140.8,314.7,140.8,314.7z
				 M140.7,305.9l0.7,7.5l7.5-0.7l-0.7-7.5L140.7,305.9z"/>
		</g>
	</g>
	<g>
		<path fill="#56ADF5" d="M413.5,250c13.5-5.1,25.3-5.9,35.2-6v0c0.2,0,0.4,0,0.7,0c0.2,0,0.4,0,0.7,0v0c0.4,0,0.8,0,1.2,0
			c0.7-3.3,1.2-6.6,1.5-9.9c-1.2,0.1-2.4,0.2-3.6,0.2c-23.6,0-42.8-19.1-42.8-42.6c0-17.9,11.1-33.2,26.8-39.5
			c-22-33-59.5-54.7-102.1-54.7c-67.7,0-122.5,54.9-122.5,122.5S263.3,342.5,331,342.5c21.4,0,41.5-5.5,59-15.1
			c-6.4-3.5-12.4-7.5-18-12.1C376.3,280.7,389.6,259,413.5,250z"/>
		<path fill="#162020" d="M331,343.2c-67.9,0-123.2-55.3-123.2-123.2c0-67.9,55.3-123.2,123.2-123.2c41.3,0,79.7,20.6,102.6,55
			l0.4,0.6l-0.7,0.3c-16,6.4-26.4,21.7-26.4,38.9c0,23.1,18.9,42,42.1,42c1.1,0,2.3-0.1,3.6-0.2l0.8-0.1l-0.1,0.8
			c-0.4,3.5-0.9,6.8-1.5,10l-0.1,0.5l-1,0c-0.2,0-0.5,0-0.7,0l-0.5,0l-0.1,0l-0.4,0l-0.3,0c-9.7,0.1-21.4,0.8-35,5.9l0,0
			c-23.2,8.7-36.7,29.8-41,64.5c5.5,4.4,11.4,8.4,17.6,11.8l1,0.5l-1,0.5C372.2,337.9,351.7,343.2,331,343.2z M331,98.1
			c-67.2,0-121.9,54.7-121.9,121.9c0,67.2,54.7,121.9,121.9,121.9c20.1,0,40.1-5,57.7-14.5c-6-3.4-11.8-7.3-17.1-11.6l-0.3-0.2
			l0-0.3c4.4-35.3,18.1-56.9,41.9-65.8l0,0c13.4-5.1,25.1-5.9,34.8-6v0l0.6,0l0.7,0l1.3,0v0c0,0,0,0,0,0c0.5-2.8,1-5.7,1.3-8.6
			c-1,0.1-2,0.1-2.9,0.1c-23.9,0-43.4-19.4-43.4-43.2c0-17.5,10.4-33,26.4-39.8C409.4,118.2,371.6,98.1,331,98.1z"/>
	</g>
	<g>
		<path fill="#C44EB9" d="M452.7,234.1c21.9-1.8,39.1-20.1,39.1-42.4c0-23.5-19.1-42.6-42.8-42.6c-5.7,0-11.1,1.1-16,3.1
			c12.9,19.4,20.5,42.7,20.5,67.8C453.5,224.8,453.2,229.5,452.7,234.1z"/>
		<path fill="#162020" d="M452,234.8l0.1-0.8c0.6-4.8,0.8-9.5,0.8-14c0-24.1-7-47.4-20.4-67.5l-0.4-0.6l0.7-0.3
			c5.2-2.1,10.6-3.1,16.2-3.1c23.9,0,43.4,19.4,43.4,43.2c0,22.3-17.4,41.2-39.7,43L452,234.8z M434,152.5
			c13.2,20.1,20.1,43.4,20.1,67.5c0,4.3-0.3,8.8-0.8,13.4c21.2-2.2,37.8-20.4,37.8-41.7c0-23.1-18.9-42-42.1-42
			C443.9,149.7,438.8,150.7,434,152.5z"/>
	</g>
	<g>
		<path fill="#3896E3" d="M347,152.2c-4.9-2-10.3-3-15.9-3c-23.6,0-42.8,19.1-42.8,42.6c0,22.2,17.1,40.5,39,42.4
			c-0.5-4.6-0.8-9.3-0.8-14.1C326.5,194.9,334,171.6,347,152.2z"/>
		<path fill="#162020" d="M328,234.8l-0.8-0.1c-22.5-2-39.5-20.5-39.5-43c0-23.8,19.5-43.2,43.4-43.2c5.5,0,11,1,16.1,3.1l0.7,0.3
			l-0.4,0.6c-13.3,20-20.4,43.4-20.4,67.5c0,4.5,0.3,9.2,0.8,14L328,234.8z M331.1,149.7c-23.2,0-42.1,18.8-42.1,42
			c0,21.7,16.1,39.5,37.6,41.7c-0.5-4.6-0.8-9.1-0.8-13.4c0-24.1,7-47.5,20.2-67.5C341.2,150.6,336.2,149.7,331.1,149.7z"/>
	</g>
	<g>
		<path fill="#3896E3" d="M328.8,244.1c-9.5,0.2-20.7,1.2-33.3,5.9c-23.9,9-37.2,30.7-41.5,65.3c21,17,47.8,27.2,77,27.2
			c21.4,0,41.5-5.5,59-15.1C358.9,310.3,336,280,328.8,244.1z"/>
		<path fill="#162020" d="M331,343.2c-28.1,0-55.6-9.7-77.4-27.4l-0.3-0.2l0-0.3c4.4-35.3,18.1-56.9,41.9-65.8
			c13.3-5,24.9-5.8,33.6-6l0.5,0l0.1,0.5c7,35.3,29.2,65.5,60.8,82.9l1,0.5l-1,0.5C372.2,337.9,351.7,343.2,331,343.2z M254.7,315.1
			c21.6,17.3,48.6,26.9,76.3,26.9c20.1,0,40-5,57.7-14.5c-31.3-17.6-53.2-47.7-60.4-82.7c-8.5,0.2-19.7,1-32.6,5.9
			C272.5,259.3,259,280.4,254.7,315.1z"/>
	</g>
	<g>
		<path fill="#A193F2" d="M373.8,191.7c0-17.9-11.1-33.3-26.9-39.5c-12.9,19.4-20.5,42.8-20.5,67.8c0,4.8,0.3,9.5,0.8,14.1
			c1.2,0.1,2.5,0.2,3.8,0.2C354.7,234.3,373.8,215.2,373.8,191.7z"/>
		<path fill="#162020" d="M331.1,234.9c-1.2,0-2.5-0.1-3.8-0.2l-0.5,0l-0.1-0.5c-0.6-4.8-0.8-9.6-0.8-14.2c0-24.4,7.1-48,20.6-68.2
			l0.3-0.4l0.5,0.2c16.6,6.6,27.3,22.4,27.3,40.1C374.5,215.5,355,234.9,331.1,234.9z M327.8,233.5c1.1,0.1,2.2,0.1,3.2,0.1
			c23.2,0,42.1-18.8,42.1-42c0-17.1-10.2-32.2-26-38.8C334,172.9,327.1,196,327.1,220C327.1,224.4,327.3,228.9,327.8,233.5z"/>
	</g>
	<g>
		<path fill="#A193F2" d="M377.3,319.4c-0.8-0.6-1.6-1.2-2.4-1.8C375.7,318.2,376.5,318.8,377.3,319.4z"/>
		<path fill="#162020" d="M377,319.9C377,319.9,377,319.9,377,319.9L377,319.9C377,319.9,377,319.9,377,319.9
			c-0.6-0.4-1.1-0.8-1.7-1.2c-0.2-0.2-0.5-0.4-0.7-0.5l0.8-1l0,0l0,0c0,0,0,0,0,0c0.2,0.2,0.5,0.4,0.7,0.5c0.6,0.4,1.1,0.8,1.7,1.2
			L377,319.9z"/>
	</g>
	<g>
		<path fill="#A193F2" d="M382,322.5c-0.7-0.4-1.3-0.9-2-1.3C380.7,321.7,381.3,322.1,382,322.5z"/>
		<path fill="#162020" d="M381.7,323.1C381.7,323.1,381.7,323.1,381.7,323.1L381.7,323.1c-0.3-0.2-0.5-0.3-0.7-0.5
			c-0.4-0.3-0.8-0.5-1.2-0.8l0.7-1h0l0,0c0,0,0,0,0,0c0.4,0.3,0.8,0.5,1.2,0.8c0.2,0.1,0.3,0.2,0.5,0.3l0.2,0.1c0,0,0,0,0,0h0
			L381.7,323.1z"/>
	</g>
	<g>
		<path fill="#A193F2" d="M397.8,322.7c-0.9,0.6-1.8,1.2-2.7,1.8C395.9,323.9,396.9,323.3,397.8,322.7z"/>
		<path fill="#162020" d="M395.4,325l-0.7-1.1c0.3-0.2,0.5-0.3,0.8-0.5c0.4-0.3,0.9-0.6,1.3-0.9l0.6-0.4l0.7,1l-0.4,0.3
			c-0.5,0.3-1,0.7-1.6,1C395.9,324.7,395.6,324.8,395.4,325C395.4,325,395.4,325,395.4,325C395.4,325,395.4,325,395.4,325z"/>
	</g>
	<g>
		<path fill="#A193F2" d="M390,327.4c1.2-0.6,2.3-1.3,3.4-2C392.3,326.1,391.2,326.8,390,327.4C390,327.4,390,327.4,390,327.4z"/>
		<path fill="#162020" d="M390,328.1l-0.3-0.2l-1-0.5l1-0.5c1-0.6,2-1.2,3-1.8l0.4-0.2l0.6,1.1l-0.8,0.5c-0.9,0.5-1.7,1-2.6,1.5
			L390,328.1z"/>
	</g>
	<g>
		<path fill="#A193F2" d="M385.9,325c-0.2-0.1-0.5-0.3-0.7-0.4C385.5,324.8,385.7,324.9,385.9,325z"/>
		<path fill="#162020" d="M385.6,325.6l-0.3-0.2c-0.1-0.1-0.3-0.2-0.4-0.2l0.7-1.1c0.1,0.1,0.2,0.1,0.4,0.2l0.3,0.2L385.6,325.6z"/>
	</g>
	<g>
		<path fill="#A193F2" d="M402.5,319.5c-0.7,0.5-1.4,1-2.2,1.5C401.1,320.5,401.8,320,402.5,319.5z"/>
		<path fill="#162020" d="M400.7,321.5l-0.7-1c0,0,0,0,0,0l0,0c0,0,0,0,0,0c0.3-0.2,0.5-0.4,0.8-0.6c0.4-0.3,0.8-0.6,1.2-0.9
			l0.1-0.1c0,0,0,0,0,0l0,0l0.7,1c-0.5,0.3-0.9,0.7-1.4,1C401.3,321.1,401,321.3,400.7,321.5z"/>
	</g>
	<g>
		<path fill="#A193F2" d="M372,315.3c0.2,0.2,0.4,0.3,0.6,0.5C372.4,315.6,372.2,315.5,372,315.3C372,315.3,372,315.3,372,315.3z"/>
		<path fill="#162020" d="M372.2,316.3L372.2,316.3l-0.3-0.2c-0.1-0.1-0.2-0.2-0.3-0.2l-0.3-0.2l0-0.4l0.2-1.1l1.1,0.9
			c0.1,0.1,0.2,0.2,0.3,0.2v0L372.2,316.3z"/>
	</g>
	<g>
		<path fill="#A193F2" d="M407.4,315.8c-0.6,0.5-1.2,0.9-1.7,1.4C406.2,316.7,406.8,316.3,407.4,315.8z"/>
		<path fill="#162020" d="M406,317.7l-0.8-1c0.6-0.4,1.2-0.9,1.7-1.4l0.8,1C407.2,316.8,406.6,317.2,406,317.7z"/>
	</g>
	<g>
		<path fill="#A193F2" d="M408.6,314.9C408.6,314.8,408.6,314.8,408.6,314.9c-0.4,0.3-0.8,0.6-1.2,0.9
			C407.8,315.5,408.2,315.2,408.6,314.9z"/>
		<path fill="#162020" d="M407.8,316.3l-0.8-1c0,0,0,0,0,0l0,0l0,0c0.2-0.2,0.4-0.4,0.7-0.6l1.4-1.2l0.2,1.5l-0.3,0.3
			c-0.2,0.2-0.5,0.4-0.7,0.5C408.1,316,407.9,316.2,407.8,316.3z"/>
	</g>
	<g>
		<path fill="#A193F2" d="M400.4,321c-0.9,0.6-1.7,1.2-2.6,1.7C398.6,322.1,399.5,321.6,400.4,321z"/>
		<path fill="#162020" d="M398.1,323.2l-0.7-1l0.2-0.1c0.4-0.2,0.7-0.5,1.1-0.7c0.4-0.3,0.9-0.6,1.3-0.9c0,0,0,0,0,0l0,0l0.7,1
			c-0.4,0.3-0.9,0.6-1.3,0.9C399,322.7,398.5,322.9,398.1,323.2L398.1,323.2C398.1,323.2,398.1,323.2,398.1,323.2z"/>
	</g>
	<g>
		<path fill="#A193F2" d="M405.6,317.2c-1,0.8-2,1.5-3.1,2.3C403.6,318.7,404.6,317.9,405.6,317.2z"/>
		<path fill="#162020" d="M402.9,320l-0.7-1c0,0,0,0,0,0l0,0l0,0c0.5-0.4,1-0.8,1.5-1.1c0.5-0.4,1-0.8,1.5-1.1c0,0,0,0,0,0
			c0,0,0,0,0,0l0.8,1c-0.5,0.4-1,0.8-1.5,1.2C403.9,319.2,403.4,319.6,402.9,320C402.9,320,402.9,320,402.9,320z"/>
	</g>
	<g>
		<path fill="#A193F2" d="M374.9,317.6c-0.8-0.6-1.6-1.2-2.3-1.8C373.4,316.4,374.2,317,374.9,317.6z"/>
		<path fill="#162020" d="M374.6,318.1c-0.8-0.6-1.6-1.2-2.3-1.8c0,0,0,0,0,0l0.8-1c0,0,0,0,0,0c0.7,0.6,1.4,1.1,2.2,1.7l0.1,0.1
			c0,0,0,0,0,0v0L374.6,318.1z"/>
	</g>
	<g>
		<path fill="#A193F2" d="M367.2,250c-13.5-5.1-25.3-5.9-35.2-6v0c-0.2,0-0.4,0-0.7,0c-0.2,0-0.5,0-0.7,0v0c-0.6,0-1.2,0-1.8,0
			c5.7,28.6,21.4,53.6,43.2,71.2c2.6-21.1,8.6-37.4,18.3-49C384.1,259,376.5,253.5,367.2,250z"/>
		<path fill="#162020" d="M372.5,316.5l-0.9-0.7c-22.4-18.1-37.8-43.5-43.4-71.6l-0.1-0.7l1.4,0c0.2,0,0.4,0,0.5,0v0l0.6,0l0.7,0
			l1.3,0v0c9.7,0.1,21.3,0.9,34.8,6c9.3,3.5,17.2,9,23.4,16.5l0.3,0.4l-0.3,0.4c-9.6,11.4-15.5,27.3-18.2,48.6L372.5,316.5z
			 M329.6,244.7c5.6,27.1,20.4,51.7,42,69.4c2.7-20.7,8.6-36.4,18-47.8c-6.1-7.1-13.7-12.4-22.6-15.7l0,0c-13.5-5.1-25.3-5.9-35-5.9
			l-0.5,0l-0.1,0l-0.4,0l-0.3,0C330.3,244.7,330,244.7,329.6,244.7z"/>
	</g>
	<g>
		<path fill="#A193F2" d="M380,321.3c-0.9-0.6-1.8-1.3-2.7-1.9C378.2,320,379.1,320.6,380,321.3z"/>
		<path fill="#162020" d="M379.7,321.8c-0.5-0.3-1-0.7-1.5-1c-0.4-0.3-0.8-0.6-1.2-0.9l0.7-1c0.4,0.3,0.8,0.6,1.2,0.9
			c0.5,0.3,1,0.7,1.5,1L379.7,321.8z"/>
	</g>
	<g>
		<path fill="#A193F2" d="M390,327.4C390,327.4,390,327.4,390,327.4c-1.3-0.8-2.7-1.6-4-2.4C387.3,325.8,388.6,326.6,390,327.4z"/>
		<path fill="#162020" d="M390,328.1l-0.3-0.2c-1.2-0.7-2.4-1.4-3.6-2.1l-0.5-0.3l0.6-1.1c1.6,0.9,2.8,1.7,4,2.3l1,0.5L390,328.1z"
			/>
	</g>
	<g>
		<path fill="#A193F2" d="M395,324.5c-0.5,0.3-1.1,0.6-1.6,0.9C394,325.1,394.5,324.8,395,324.5z"/>
		<path fill="#162020" d="M393.7,325.9l-0.6-1.1l0,0l0.6-0.4c0.3-0.2,0.6-0.4,0.9-0.5c0,0,0,0,0,0l0.7,1.1c-0.3,0.2-0.7,0.4-1,0.6
			L393.7,325.9z"/>
	</g>
	<g>
		<path fill="#A193F2" d="M385.2,324.6c-1.1-0.7-2.2-1.4-3.2-2.1C383.1,323.2,384.1,323.9,385.2,324.6z"/>
		<path fill="#162020" d="M384.9,325.2c-0.5-0.3-1-0.6-1.5-0.9c-0.6-0.4-1.2-0.8-1.8-1.2l0,0l0,0l0.7-1l0,0c0,0,0,0,0,0l0.1,0.1
			c0.5,0.4,1.1,0.7,1.6,1.1c0.5,0.3,1,0.6,1.5,0.9L384.9,325.2z"/>
	</g>
	<g>
		<path fill="#816FEA" d="M372,315.3c0.2,0.2,0.4,0.3,0.6,0.5c0.8,0.6,1.5,1.2,2.3,1.8c0.8,0.6,1.6,1.2,2.4,1.8
			c0.9,0.6,1.8,1.3,2.7,1.9c0.6,0.4,1.3,0.9,2,1.3c1.1,0.7,2.1,1.4,3.2,2.1c0.2,0.1,0.5,0.3,0.7,0.4c1.3,0.8,2.7,1.6,4.1,2.4
			c1.2-0.6,2.3-1.3,3.4-2c0.5-0.3,1.1-0.6,1.6-0.9c0.9-0.6,1.8-1.2,2.7-1.8c0.9-0.6,1.7-1.1,2.6-1.7c0.7-0.5,1.4-1,2.2-1.5
			c1-0.8,2.1-1.5,3.1-2.3c0.6-0.4,1.2-0.9,1.7-1.4c0.4-0.3,0.8-0.7,1.2-1c-2.6-20.9-8.6-37-18.2-48.5
			C380.6,277.9,374.6,294.2,372,315.3z"/>
		<path fill="#162020" d="M390,328.1l-0.3-0.2c-1.2-0.7-2.5-1.4-4.1-2.4l-0.3-0.2c-0.1-0.1-0.3-0.2-0.4-0.2c-1.1-0.6-2.1-1.3-3.2-2
			l-0.3-0.2c-0.6-0.4-1.2-0.8-1.8-1.2c-0.9-0.6-1.8-1.3-2.7-1.9c-0.8-0.6-1.6-1.2-2.4-1.8c-0.8-0.6-1.6-1.2-2.3-1.8
			c-0.1-0.1-0.2-0.2-0.3-0.3l-0.5-0.4l0-0.3c2.7-21.6,8.7-37.7,18.4-49.3l0.5-0.6l0.5,0.6c9.7,11.5,15.7,27.5,18.4,48.8l0,0.3
			l-0.8,0.6c-0.2,0.2-0.5,0.4-0.7,0.6c-0.6,0.5-1.2,0.9-1.8,1.4c-1,0.8-2.1,1.6-3.1,2.3l-0.1,0.1c-0.7,0.5-1.4,1-2,1.4
			c-0.8,0.5-1.6,1.1-2.4,1.6l-0.9,0.6c-0.7,0.5-1.4,0.9-2.1,1.4c-0.3,0.2-0.6,0.4-1,0.6l-1,0.6c-1,0.6-2,1.2-3.1,1.8L390,328.1z
			 M372.7,315L372.7,315c0.1,0.1,0.2,0.2,0.3,0.3c0.8,0.6,1.5,1.2,2.3,1.8c0.8,0.6,1.6,1.2,2.4,1.8c0.9,0.6,1.8,1.3,2.7,1.9
			c0.6,0.4,1.2,0.8,1.7,1.1l0.3,0.2c1,0.7,2.1,1.3,3.1,2c0.1,0.1,0.2,0.1,0.4,0.2l0.3,0.2c1.4,0.9,2.6,1.6,3.7,2.2
			c0.9-0.5,1.8-1.1,2.7-1.6l1-0.6c0.3-0.2,0.6-0.4,0.9-0.5c0.7-0.4,1.4-0.9,2.1-1.3l0.9-0.6c0.8-0.5,1.6-1,2.4-1.6
			c0.7-0.5,1.3-0.9,2-1.4l0.1-0.1c1-0.7,2.1-1.5,3.1-2.3c0.6-0.4,1.2-0.9,1.7-1.4c0.2-0.2,0.4-0.4,0.7-0.6l0.3-0.2
			c-2.6-20.5-8.4-36-17.6-47.2C381.1,278.6,375.3,294.2,372.7,315z"/>
	</g>
	<g>
		<path fill="#162020" d="M331,343.2c-67.9,0-123.2-55.3-123.2-123.2c0-67.9,55.3-123.2,123.2-123.2c20.7,0,41.2,5.3,59.3,15.2
			l1,0.5l-1,0.5c-16.9,9.3-31.6,22.7-42.4,38.7c16.2,6.8,26.6,22.3,26.6,39.8c0,23.8-19.5,43.2-43.4,43.2c-1,0-2,0-3.1-0.1
			c0.4,3,0.8,5.9,1.3,8.7l0.1,0c0.2,0,0.4,0,0.5,0v0l0.6,0l0.7,0l1.3,0v0c9.7,0.1,21.3,0.9,34.8,6c23.7,8.9,37.4,30.3,41.8,65.4
			l0,0.3l-0.3,0.2c-5.4,4.5-11.4,8.5-17.6,12l0,0l-1,0.6C372.2,337.9,351.7,343.2,331,343.2z M331,98.1
			c-67.2,0-121.9,54.7-121.9,121.9c0,67.2,54.7,121.9,121.9,121.9c20.2,0,40.2-5,57.8-14.6l0.9-0.5c6.5-3.6,12.6-7.7,18.2-12.3
			c-4.4-34.4-17.8-55.3-41-64c-13.5-5.1-25.3-5.9-35-5.9l-0.5,0l-0.1,0l-0.4,0l-0.3,0c-0.4,0-0.8,0-1.1,0l-1.2,0l-0.1-0.5
			c-0.6-3.2-1.2-6.6-1.6-10l-0.1-0.8l0.8,0.1c1.3,0.1,2.6,0.2,3.7,0.2c23.2,0,42.1-18.8,42.1-42c0-17.3-10.4-32.5-26.5-39l-0.7-0.3
			l0.4-0.6c10.8-16.2,25.4-29.7,42.3-39.2C371.1,103.1,351.1,98.1,331,98.1z"/>
	</g>
	<g>
		<g>
			<path fill="none" d="M416.9,307.4c-0.1,0.1-0.3,0.3-0.4,0.4C416.6,307.6,416.8,307.5,416.9,307.4z"/>
		</g>
		<g>
			<path fill="none" d="M445.6,263.3c-0.1,0.1-0.1,0.3-0.2,0.4C445.5,263.6,445.6,263.5,445.6,263.3z"/>
		</g>
		<g>
			<path fill="none" d="M401.9,319.9c-0.3,0.2-0.5,0.4-0.8,0.6C401.4,320.3,401.6,320.1,401.9,319.9z"/>
		</g>
		<g>
			<path fill="none" d="M423.5,300.3c-0.2,0.2-0.4,0.4-0.5,0.6C423.1,300.8,423.3,300.6,423.5,300.3z"/>
		</g>
		<g>
			<path fill="none" d="M414.6,309.5c-0.3,0.2-0.5,0.5-0.8,0.7C414.1,310,414.4,309.8,414.6,309.5z"/>
		</g>
		<g>
			<path fill="none" d="M444.4,266.5c-0.1,0.2-0.2,0.4-0.2,0.5C444.2,266.9,444.3,266.7,444.4,266.5z"/>
		</g>
		<g>
			<path fill="none" d="M435.3,284.3c-0.1,0.2-0.3,0.4-0.4,0.6C435,284.7,435.2,284.5,435.3,284.3z"/>
		</g>
		<g>
			<path fill="none" d="M450.5,247.2c0,0.2-0.1,0.3-0.1,0.5C450.4,247.5,450.5,247.3,450.5,247.2z"/>
		</g>
		<g>
			<path fill="none" d="M409.3,314.3c-0.2,0.2-0.4,0.3-0.6,0.5C408.9,314.6,409.1,314.4,409.3,314.3z"/>
		</g>
		<g>
			<path fill="none" d="M412,311.9c-0.3,0.2-0.5,0.5-0.8,0.7C411.5,312.4,411.8,312.1,412,311.9z"/>
		</g>
		<g>
			<path fill="none" d="M449.7,250.6c0,0.1-0.1,0.2-0.1,0.3C449.6,250.8,449.6,250.7,449.7,250.6z"/>
		</g>
		<g>
			<path fill="none" d="M399.1,321.9c-0.3,0.2-0.6,0.4-1,0.6C398.4,322.3,398.7,322.1,399.1,321.9z"/>
		</g>
		<g>
			<path fill="none" d="M392.9,325.7c-0.1,0.1-0.2,0.1-0.3,0.2C392.8,325.8,392.9,325.8,392.9,325.7z"/>
		</g>
		<g>
			<path fill="none" d="M427.9,295c-0.2,0.2-0.3,0.4-0.5,0.6C427.6,295.4,427.8,295.2,427.9,295z"/>
		</g>
		<g>
			<path fill="none" d="M396.1,323.8c-0.3,0.2-0.6,0.4-0.9,0.6C395.4,324.2,395.7,324,396.1,323.8z"/>
		</g>
		<g>
			<path fill="none" d="M443,269.8c0,0.1,0,0.1-0.1,0.2C442.9,269.9,443,269.8,443,269.8z"/>
		</g>
		<g>
			<path fill="none" d="M437.1,281.3c-0.1,0.2-0.3,0.4-0.4,0.7C436.8,281.8,437,281.5,437.1,281.3z"/>
		</g>
		<g>
			<path fill="none" d="M425.8,297.6c-0.2,0.3-0.4,0.5-0.6,0.7C425.4,298.1,425.6,297.9,425.8,297.6z"/>
		</g>
		<g>
			<path fill="none" d="M438.6,278.6c0,0.1-0.1,0.2-0.1,0.3C438.5,278.8,438.6,278.7,438.6,278.6z"/>
		</g>
		<g>
			<path fill="#C44EB9" d="M399.5,321.6c0.1,0,0.1-0.1,0.2-0.1C399.6,321.5,399.6,321.6,399.5,321.6z"/>
			<polygon fill="#162020" points="399.8,322.1 399.2,321.1 399.3,321 400,322 			"/>
		</g>
		<g>
			<path fill="#C44EB9" d="M404.2,318.3c0.1,0,0.1-0.1,0.2-0.1c-0.1,0.1-0.2,0.1-0.3,0.2C404.1,318.3,404.1,318.3,404.2,318.3
				C404.2,318.3,404.2,318.3,404.2,318.3z"/>
			<polygon fill="#162020" points="404.5,318.9 403.7,317.9 404,317.6 404.7,318.6 404.6,318.8 404.6,318.8 404.5,318.8 
				404.5,318.8 			"/>
		</g>
		<g>
			<path fill="#C44EB9" d="M526.6,314.9c-4.3-34.4-17.6-55.9-41.4-64.9c-13-4.9-24.4-5.8-34-5.9c0,0,0,0,0,0.1
				c-0.2,0.8-0.3,1.7-0.5,2.5c0,0.1-0.1,0.3-0.1,0.4c0,0.1,0,0.1,0,0.2c0,0.2-0.1,0.3-0.1,0.5c-0.2,1-0.5,2-0.7,3
				c0,0.1-0.1,0.2-0.1,0.3c-0.1,0.3-0.1,0.5-0.2,0.8c0,0.1-0.1,0.2-0.1,0.3c-0.7,2.6-1.5,5.1-2.3,7.6c0,0,0,0,0,0
				c-0.4,1.3-0.9,2.5-1.3,3.7c-0.1,0.1-0.1,0.3-0.2,0.4c-0.4,0.9-0.7,1.8-1.1,2.7c-0.1,0.2-0.2,0.4-0.2,0.5
				c-0.4,0.9-0.8,1.8-1.2,2.7c0,0.1,0,0.1-0.1,0.2c-1.3,2.9-2.7,5.8-4.3,8.7c0,0.1-0.1,0.2-0.1,0.3c-0.5,0.8-0.9,1.6-1.4,2.5
				c-0.1,0.2-0.3,0.4-0.4,0.7c-0.5,0.8-0.9,1.6-1.4,2.3c-0.1,0.2-0.3,0.4-0.4,0.6c-2.2,3.5-4.5,6.8-7,10c-0.2,0.2-0.3,0.4-0.5,0.6
				c-0.5,0.7-1.1,1.4-1.6,2c-0.2,0.3-0.4,0.5-0.6,0.7c-0.6,0.7-1.1,1.3-1.7,2c-0.2,0.2-0.4,0.4-0.5,0.6c-1.9,2.2-4,4.3-6.1,6.4
				c-0.1,0.1-0.3,0.3-0.4,0.4c-0.6,0.6-1.2,1.2-1.9,1.8c-0.3,0.2-0.5,0.5-0.8,0.7c-0.6,0.6-1.2,1.1-1.8,1.6
				c-0.3,0.2-0.5,0.5-0.8,0.7c-0.6,0.5-1.3,1.1-1.9,1.6c-0.2,0.2-0.4,0.3-0.6,0.5c0,0-0.1,0.1-0.1,0.1c0,0,0,0,0,0
				c-0.1,0.1-0.3,0.2-0.4,0.3c-1.3,1.1-2.6,2.1-4,3.1c0,0,0,0-0.1,0c-0.7,0.6-1.5,1.1-2.2,1.6c-0.3,0.2-0.5,0.4-0.8,0.6
				c-0.7,0.5-1.3,0.9-2,1.4c-0.3,0.2-0.6,0.4-1,0.6c-0.7,0.4-1.4,0.9-2,1.3c-0.3,0.2-0.6,0.4-0.9,0.6c-0.7,0.4-1.4,0.9-2.2,1.3
				c-0.1,0.1-0.2,0.1-0.3,0.2c-0.9,0.5-1.7,1-2.6,1.5c17.5,9.6,37.6,15.1,59,15.1C478.4,342.5,505.4,332.2,526.6,314.9z"/>
			<path fill="#162020" d="M449,343.2c-20.7,0-41.2-5.3-59.3-15.2l-1-0.5l1-0.5c0.8-0.5,1.7-1,2.5-1.4l0.4-0.2
				c0.7-0.4,1.4-0.9,2.2-1.3l0.2-0.2c0.2-0.1,0.5-0.3,0.7-0.4c0.7-0.4,1.4-0.9,2-1.3c0.3-0.2,0.6-0.4,1-0.6c0.7-0.5,1.3-0.9,2-1.4
				l0.8-0.6c0.7-0.5,1.5-1.1,2.2-1.6c1.3-1,2.6-2,4-3.1l0.1-0.1l0,0l1-0.8c0.6-0.5,1.3-1.1,1.9-1.6c0.3-0.2,0.5-0.5,0.8-0.7
				c0.6-0.5,1.2-1.1,1.8-1.6l0.8-0.7c0.6-0.6,1.2-1.2,1.8-1.7l0.4-0.4c2.1-2,4.1-4.2,6-6.4l0.5-0.6c0.6-0.6,1.1-1.3,1.7-2l0.6-0.7
				c0.5-0.7,1.1-1.3,1.6-2l0.5-0.6c2.5-3.2,4.8-6.5,7-10l0.4-0.6c0.5-0.8,0.9-1.6,1.4-2.3l0.4-0.7c0.5-0.8,0.9-1.6,1.4-2.5l0.1-0.3
				c1.5-2.8,3-5.7,4.3-8.6l0.6,0.1l-0.6-0.3c0.4-0.9,0.8-1.8,1.2-2.7l0.2-0.5c0.4-0.9,0.7-1.8,1.1-2.7l0.2-0.4
				c0.5-1.2,0.9-2.5,1.3-3.7c0.9-2.5,1.6-5,2.3-7.5l0.4-1.4c0.3-1,0.5-2,0.7-3l0.2-1c0.2-0.8,0.4-1.7,0.5-2.5l0.1-0.5l0.5,0
				c8.8,0.1,20.7,0.9,34.2,6c23.7,8.9,37.4,30.3,41.8,65.4l0,0.3l-0.3,0.2C505,333.3,477.4,343.2,449,343.2z M391.3,327.4
				c17.6,9.5,37.6,14.5,57.7,14.5c28,0,55.2-9.7,76.9-27.3c-4.4-34.4-17.8-55.3-41-64c-13-4.9-24.6-5.8-33.3-5.9
				c-0.1,0.7-0.3,1.4-0.4,2l-0.1,0.5l-0.6-0.1l0.6,0.2l-0.1,0.4c-0.2,1-0.5,2-0.7,3l-0.4,1.4c-0.7,2.5-1.5,5.1-2.3,7.6
				c-0.4,1.3-0.9,2.5-1.4,3.8l-0.2,0.4c-0.4,0.9-0.7,1.8-1.1,2.8l-0.2,0.5c-0.4,0.9-0.8,1.8-1.2,2.8l-0.1,0.2
				c-1.3,2.9-2.8,5.9-4.3,8.7l-0.1,0.2c-0.5,0.9-1,1.7-1.4,2.6l-0.4,0.7c-0.5,0.8-0.9,1.6-1.4,2.4l-0.4,0.6c-2.2,3.5-4.5,6.8-7,10.1
				l-0.5,0.6c-0.5,0.7-1.1,1.4-1.6,2l-0.6,0.8c-0.6,0.7-1.1,1.3-1.7,2l-0.6,0.6c-2,2.2-4,4.4-6.1,6.4l-0.4,0.4
				c-0.6,0.6-1.2,1.2-1.9,1.8l-0.8,0.7c-0.6,0.6-1.2,1.1-1.8,1.7c-0.3,0.2-0.5,0.5-0.8,0.7c-0.6,0.5-1.3,1.1-1.9,1.6l-1.1,0.9
				c-1.4,1.1-2.7,2.2-4,3.1c-0.8,0.6-1.6,1.1-2.3,1.7l-0.8,0.6c-0.7,0.5-1.4,0.9-2,1.4c-0.3,0.2-0.6,0.4-1,0.6
				c-0.7,0.4-1.4,0.9-2.1,1.3c-0.2,0.1-0.5,0.3-0.7,0.4l-0.2,0.1c-0.7,0.4-1.4,0.9-2.2,1.3l-0.3,0.2
				C392.4,326.8,391.9,327.1,391.3,327.4z"/>
		</g>
		<g>
			<path fill="#C44EB9" d="M408.6,314.9C408.6,314.9,408.6,314.9,408.6,314.9c-0.2,0.2-0.4,0.3-0.6,0.5c0.1,0,0.1-0.1,0.2-0.1
				C408.3,315.1,408.4,315,408.6,314.9z"/>
			<polygon fill="#162020" points="408.4,315.8 407.6,314.8 408.2,314.4 409,315.3 408.4,315.8 408.4,315.8 			"/>
		</g>
		<g>
			<path fill="#C44EB9" d="M452,200.5c0.1,0.5,0.2,1.1,0.3,1.6C452.2,201.6,452.1,201.1,452,200.5z"/>
			<path fill="#162020" d="M451.6,202.2c-0.1-0.4-0.1-0.9-0.2-1.3l0-0.3l1.2-0.2l0,0.3c0.1,0.4,0.1,0.9,0.2,1.3L451.6,202.2z"/>
		</g>
		<g>
			<path fill="#C44EB9" d="M452.6,204.9c0.1,0.6,0.1,1.1,0.2,1.7C452.7,206,452.7,205.4,452.6,204.9z"/>
			<path fill="#162020" d="M452.2,206.6c0-0.4-0.1-0.8-0.1-1.2L452,205l1.2-0.2l0.1,0.5c0.1,0.4,0.1,0.8,0.1,1.2L452.2,206.6z"/>
		</g>
		<g>
			<path fill="#C44EB9" d="M453.3,226.7c0,0.2,0,0.3,0,0.5C453.3,227.1,453.3,226.9,453.3,226.7z"/>
			<polygon fill="#162020" points="453.9,227.2 452.7,227.2 452.7,226.7 454,226.8 			"/>
		</g>
		<g>
			<path fill="#C44EB9" d="M451.2,196.2c0.1,0.5,0.2,1,0.3,1.5C451.4,197.2,451.3,196.7,451.2,196.2z"/>
			<path fill="#162020" d="M450.9,197.8c-0.1-0.5-0.2-1-0.3-1.5l1.2-0.2c0.1,0.5,0.2,1,0.3,1.5L450.9,197.8z"/>
		</g>
		<g>
			<path fill="#C44EB9" d="M453.1,209.4c0,0.5,0.1,1.1,0.1,1.6C453.2,210.5,453.1,209.9,453.1,209.4z"/>
			<path fill="#162020" d="M452.6,211.1c0-0.3-0.1-0.7-0.1-1l-0.1-0.6l1.2-0.1l0,0.5c0,0.4,0.1,0.7,0.1,1.1c0,0,0,0,0,0L452.6,211.1
				z"/>
		</g>
		<g>
			<path fill="#C44EB9" d="M453.4,214.1c0,0.5,0.1,1,0.1,1.4C453.4,215,453.4,214.5,453.4,214.1z"/>
			<path fill="#162020" d="M452.8,215.5c0-0.3,0-0.6,0-0.9l0-0.6l1.2-0.1l0,0.5c0,0.3,0,0.6,0,0.9L452.8,215.5z"/>
		</g>
		<g>
			<path fill="#C44EB9" d="M453.5,223.8c0-1.3,0.1-2.5,0.1-3.8c0,0,0,0,0,0c0,0,0,0,0,0C453.5,221.3,453.5,222.5,453.5,223.8z"/>
			<path fill="#162020" d="M454.1,223.8l-1.2,0c0-1.3,0.1-2.5,0.1-3.8l1.2,0C454.2,221.3,454.1,222.5,454.1,223.8
				C454.1,223.8,454.1,223.8,454.1,223.8C454.1,223.8,454.1,223.8,454.1,223.8z"/>
		</g>
		<g>
			<path fill="#C44EB9" d="M448.1,183.7c0.1,0.3,0.2,0.6,0.3,0.9C448.2,184.3,448.2,184,448.1,183.7z"/>
			<polygon fill="#162020" points="447.7,184.8 447.5,183.8 448.7,183.5 448.9,184.4 			"/>
		</g>
		<g>
			<path fill="#C44EB9" d="M433.1,152.2C433.1,152.2,433.1,152.2,433.1,152.2C433.1,152.2,433.1,152.2,433.1,152.2
				C433.1,152.2,433.1,152.2,433.1,152.2z"/>
			<polygon fill="#162020" points="432.6,152.5 433.6,151.9 433.6,151.9 433.2,152.1 433.6,151.9 433.2,152.1 			"/>
		</g>
		<g>
			<path fill="#C44EB9" d="M449.3,187.8c0.1,0.4,0.2,0.8,0.3,1.2C449.5,188.6,449.4,188.2,449.3,187.8z"/>
			<path fill="#162020" d="M449,189.1C449,189.1,449,189.1,449,189.1L449,189.1c-0.1-0.4-0.2-0.8-0.3-1.2c0,0,0,0,0,0c0,0,0,0,0,0
				l1.2-0.3c0.1,0.4,0.2,0.7,0.3,1.1l0,0.1L449,189.1z"/>
		</g>
		<g>
			<path fill="#C44EB9" d="M446.7,179.6c0.1,0.2,0.1,0.4,0.2,0.6C446.8,180,446.8,179.8,446.7,179.6z"/>
			<polygon fill="#162020" points="446.3,180.4 446.1,179.8 447.3,179.4 447.5,180 			"/>
		</g>
		<g>
			<path fill="#C44EB9" d="M450.3,192c0.1,0.5,0.2,0.9,0.3,1.4C450.5,192.9,450.4,192.4,450.3,192z"/>
			<path fill="#162020" d="M450,193.5c-0.1-0.5-0.2-0.9-0.3-1.4l1.2-0.3c0.1,0.5,0.2,0.9,0.3,1.4L450,193.5z"/>
		</g>
		<g>
			<path fill="#C44EB9" d="M451.2,244.1C451.2,244.1,451.2,244.1,451.2,244.1C451.2,244.1,451.2,244.1,451.2,244.1
				C451.2,244.1,451.2,244.1,451.2,244.1z"/>
			<path fill="#162020" d="M451.8,244.2l-1.2-0.2l0.8,0.1l-0.2-0.1L451.8,244.2L451.8,244.2z M451.7,244.2L451.7,244.2L451.7,244.2z
				"/>
		</g>
		<g>
			<path fill="#C44EB9" d="M407.3,306.7c-0.2-0.9-0.3-1.9-0.5-2.8C407,304.9,407.2,305.8,407.3,306.7z"/>
			<path fill="#162020" d="M406.7,306.8c0-0.1-0.1-0.3-0.1-0.4c-0.1-0.8-0.3-1.6-0.4-2.3c0,0,0,0,0,0c0,0,0,0,0,0l1.2-0.2
				c0,0,0,0,0,0l0,0c0,0,0,0,0,0c0.2,0.8,0.3,1.6,0.4,2.3c0,0.1,0.1,0.3,0.1,0.4L406.7,306.8z"/>
		</g>
		<g>
			<path fill="#C44EB9" d="M390.3,266.3c7.8,9.3,13.2,21.6,16.3,37C403.5,287.9,398.1,275.6,390.3,266.3
				C390.3,266.3,390.3,266.3,390.3,266.3z"/>
			<path fill="#162020" d="M406.1,303.5L406.1,303.5C406.1,303.5,406.1,303.5,406.1,303.5c-3.2-15.3-8.6-27.7-16.2-36.7l-0.3-0.4
				l0.8-1l0.5,0.5c7.8,9.3,13.2,21.5,16.5,37.3L406.1,303.5z"/>
		</g>
		<g>
			<path fill="#C44EB9" d="M407.9,310.4c-0.1-0.9-0.3-1.8-0.4-2.7C407.6,308.5,407.8,309.4,407.9,310.4z"/>
			<path fill="#162020" d="M407.3,310.5c-0.1-0.9-0.3-1.8-0.4-2.7l1.2-0.2c0.2,0.9,0.3,1.8,0.4,2.7L407.3,310.5z"/>
		</g>
		<g>
			<path fill="#C44EB9" d="M408.6,314.8C408.6,314.8,408.6,314.8,408.6,314.8c-0.2-1.2-0.3-2.4-0.5-3.6
				C408.2,312.4,408.4,313.6,408.6,314.8z"/>
			<path fill="#162020" d="M407.9,314.9c-0.2-1.2-0.3-2.4-0.5-3.6l1.2-0.2c0.2,1.2,0.3,2.4,0.5,3.6L407.9,314.9z"/>
		</g>
		<g>
			<path fill="#C44EB9" d="M449.4,251.7c0,0.1-0.1,0.2-0.1,0.3C449.3,251.9,449.4,251.8,449.4,251.7z"/>
			<polygon fill="#162020" points="449.9,252.2 448.7,251.9 448.8,251.6 450,251.9 			"/>
		</g>
		<g>
			<path fill="#C44EB9" d="M447,259.6C447,259.6,447,259.6,447,259.6C447,259.6,447,259.6,447,259.6z"/>
			<circle fill="#162020" cx="447" cy="259.6" r="0.6"/>
		</g>
		<g>
			<path fill="#C44EB9" d="M451.2,244.1C451.2,244.1,451.2,244.1,451.2,244.1C451.2,244.1,451.2,244.1,451.2,244.1
				C451.2,244.1,451.2,244.1,451.2,244.1z"/>
			<polygon fill="#162020" points="450.5,249.4 450.5,244 450.5,244 450.5,244 450.6,243.9 451.8,244.2 451.6,244.2 451.8,244.2 			
				"/>
		</g>
		<g>
			<path fill="#C44EB9" d="M450.6,246.6c0,0.1-0.1,0.3-0.1,0.4C450.6,246.9,450.6,246.7,450.6,246.6z"/>
			<polygon fill="#162020" points="451.2,247.1 449.9,246.9 450,246.5 451.2,246.7 			"/>
		</g>
		<g>
			<path fill="#C44EB9" d="M408.1,311.2c0-0.3-0.1-0.6-0.1-0.8C408,310.6,408,310.9,408.1,311.2z"/>
			<polygon fill="#162020" points="407.4,311.3 407.3,310.5 408.5,310.3 408.7,311.1 			"/>
		</g>
		<g>
			<path fill="#C44EB9" d="M404.4,318.1c1.2-0.9,2.4-1.9,3.6-2.8C406.8,316.3,405.6,317.2,404.4,318.1z"/>
			<path fill="#162020" d="M404.7,318.6l-0.7-1l0,0l0,0c0,0,0,0,0,0c1.2-0.9,2.3-1.8,3.6-2.8l0.8,1c0,0,0,0,0,0c0,0,0,0,0,0
				C407.1,316.9,405.9,317.8,404.7,318.6L404.7,318.6L404.7,318.6z"/>
		</g>
		<g>
			<path fill="#C44EB9" d="M407.5,307.6c-0.1-0.3-0.1-0.6-0.2-0.9C407.4,307,407.4,307.3,407.5,307.6z"/>
			<polygon fill="#162020" points="406.9,307.7 406.7,306.8 407.9,306.6 408.1,307.5 			"/>
		</g>
		<g>
			<path fill="#C44EB9" d="M406.8,304c0-0.2-0.1-0.4-0.1-0.6C406.7,303.6,406.8,303.8,406.8,304z"/>
			<polygon fill="#162020" points="406.2,304.1 406.1,303.5 407.3,303.2 407.3,303.3 407.4,303.8 			"/>
		</g>
		<g>
			<path fill="#C44EB9" d="M453.5,223.8c0,1-0.1,2-0.1,3C453.4,225.8,453.5,224.8,453.5,223.8z"/>
			<path fill="#162020" d="M454,226.8l-1.2-0.1c0,0,0,0,0,0l0,0v0c0-0.6,0.1-1.2,0.1-1.7c0-0.4,0-0.8,0-1.2l1.2,0c0,0.4,0,0.8,0,1.2
				C454,225.6,454,226.2,454,226.8C454,226.8,454,226.8,454,226.8C454,226.8,454,226.8,454,226.8z"/>
		</g>
		<g>
			<path fill="#C44EB9" d="M453.2,211c0.1,1,0.1,2,0.2,3.1C453.3,213,453.3,212,453.2,211z"/>
			<path fill="#162020" d="M452.8,214.1c0-1-0.1-2-0.2-3l1.2-0.1c0.1,1,0.1,2,0.2,3.1L452.8,214.1z"/>
		</g>
		<g>
			<path fill="#C44EB9" d="M449.6,189c0.3,1,0.5,2,0.7,3C450.1,191,449.8,190,449.6,189z"/>
			<path fill="#162020" d="M449.7,192.1c-0.2-1-0.5-2-0.7-3l1.2-0.3c0.3,1,0.5,2,0.7,3L449.7,192.1z"/>
		</g>
		<g>
			<path fill="#C44EB9" d="M452.8,206.6c0.1,0.9,0.2,1.9,0.3,2.8C453,208.4,452.9,207.5,452.8,206.6z"/>
			<path fill="#162020" d="M452.4,209.4c-0.1-0.9-0.2-1.9-0.3-2.8l1.2-0.1c0.1,0.9,0.2,1.9,0.3,2.8L452.4,209.4z"/>
		</g>
		<g>
			<path fill="#C44EB9" d="M452.2,202.1c0.1,0.9,0.3,1.8,0.4,2.8C452.5,204,452.4,203,452.2,202.1z"/>
			<path fill="#162020" d="M452,205L452,205c-0.1-0.9-0.2-1.8-0.4-2.7c0,0,0,0,0,0v0l1.2-0.2v0l0,0c0,0,0,0,0,0
				c0.1,0.9,0.3,1.8,0.4,2.8l0,0L452,205z"/>
		</g>
		<g>
			<path fill="#C44EB9" d="M448.3,184.6c0.3,1.1,0.6,2.1,0.9,3.2C449,186.7,448.7,185.7,448.3,184.6z"/>
			<path fill="#162020" d="M448.6,188L448.6,188C448.6,187.9,448.6,187.9,448.6,188c-0.3-1-0.6-2.1-0.9-3.1c0,0,0-0.1,0-0.1l1.2-0.4
				c0.3,1,0.6,2.1,0.9,3.1c0,0,0,0,0,0.1l0,0L448.6,188z"/>
		</g>
		<g>
			<path fill="#C44EB9" d="M433.1,152.2c5.6,8.4,10.2,17.6,13.6,27.4C443.3,169.8,438.7,160.7,433.1,152.2z"/>
			<path fill="#162020" d="M446.1,179.8L446.1,179.8C446.1,179.8,446.1,179.8,446.1,179.8c-3.4-9.6-7.9-18.8-13.6-27.2l1-0.7
				c5.7,8.6,10.3,17.8,13.7,27.5L446.1,179.8z"/>
		</g>
		<g>
			<path fill="#C44EB9" d="M446.9,180.2c0.4,1.2,0.8,2.3,1.1,3.5C447.7,182.5,447.3,181.3,446.9,180.2z"/>
			<path fill="#162020" d="M447.5,183.8c-0.1-0.2-0.1-0.3-0.2-0.5c-0.3-1-0.6-2-1-3c0,0,0,0,0,0c0,0,0,0,0,0l1.2-0.4
				c0.3,1,0.7,2,1,3c0.1,0.2,0.1,0.4,0.2,0.5L447.5,183.8z"/>
		</g>
		<g>
			<path fill="#C44EB9" d="M451.5,197.7c0.2,0.9,0.3,1.9,0.5,2.8C451.8,199.6,451.7,198.7,451.5,197.7z"/>
			<path fill="#162020" d="M451.4,200.6c-0.1-0.9-0.3-1.8-0.5-2.8c0,0,0,0,0,0c0,0,0,0,0,0l1.2-0.2c0,0,0,0,0,0l0,0c0,0,0,0,0,0
				c0.2,0.9,0.3,1.9,0.5,2.8L451.4,200.6z"/>
		</g>
		<g>
			<path fill="#C44EB9" d="M453.5,215.5c0.1,1.5,0.1,3,0.1,4.5C453.5,218.5,453.5,217,453.5,215.5z"/>
			<path fill="#162020" d="M454.2,220h-1.2c0-1.4,0-2.9-0.1-4.4c0,0,0,0,0,0c0,0,0,0,0,0l1.2,0c0,0,0,0,0,0l0,0c0,0,0,0,0,0
				C454.1,217,454.2,218.5,454.2,220z"/>
		</g>
		<g>
			<path fill="#C44EB9" d="M450.6,193.4c0.2,0.9,0.4,1.9,0.6,2.9C451,195.3,450.8,194.3,450.6,193.4z"/>
			<path fill="#162020" d="M450.6,196.3c-0.2-1-0.4-1.9-0.6-2.8l1.2-0.3c0.2,1,0.4,1.9,0.6,2.9L450.6,196.3z"/>
		</g>
		<g>
			<path fill="#C44EB9" d="M449.5,251.3c0-0.1,0.1-0.2,0.1-0.3c0-0.1,0.1-0.2,0.1-0.3c0-0.2,0.1-0.3,0.1-0.5
				C449.7,250.5,449.6,250.9,449.5,251.3z"/>
			<polygon fill="#162020" points="450.1,251.4 448.9,251.1 449.2,250 450.4,250.3 450.1,251.4 			"/>
		</g>
		<g>
			<path fill="#C44EB9" d="M445.3,264.3c0.1-0.2,0.2-0.4,0.2-0.6c0.1-0.1,0.1-0.3,0.2-0.4c0.1-0.2,0.2-0.5,0.2-0.7
				C445.7,263.2,445.5,263.8,445.3,264.3z"/>
			<path fill="#162020" d="M445.8,264.6l-1.2-0.5l0,0c0.2-0.6,0.4-1.1,0.6-1.7l1.2,0.4l0,0L445.8,264.6
				C445.8,264.6,445.8,264.6,445.8,264.6z"/>
		</g>
		<g>
			<path fill="#C44EB9" d="M450.3,248.1c0-0.1,0.1-0.3,0.1-0.4c0-0.2,0.1-0.3,0.1-0.5c0,0,0,0,0-0.1
				C450.4,247.4,450.4,247.8,450.3,248.1z"/>
			<path fill="#162020" d="M450.9,248.2l-1.2-0.3l0-0.2c0.1-0.3,0.1-0.5,0.2-0.8l1.2,0.2l0,0h0c0,0,0,0,0,0.1L450.9,248.2z"/>
		</g>
		<g>
			<path fill="#C44EB9" d="M446.3,261.4c0.2-0.5,0.4-1,0.5-1.5C446.7,260.4,446.5,260.9,446.3,261.4z"/>
			<path fill="#162020" d="M446.9,261.6l-1.2-0.4c0.2-0.5,0.4-1,0.5-1.5l1.2,0.4C447.3,260.6,447.1,261.1,446.9,261.6z"/>
		</g>
		<g>
			<path fill="#C44EB9" d="M447.4,258.3c0.1-0.4,0.3-0.8,0.4-1.2C447.7,257.5,447.6,257.9,447.4,258.3z"/>
			<path fill="#162020" d="M448,258.4l-1.2-0.4l0.1-0.4c0.1-0.2,0.2-0.5,0.2-0.8l1.2,0.4c-0.1,0.3-0.2,0.5-0.3,0.8L448,258.4z"/>
		</g>
		<g>
			<path fill="#C44EB9" d="M401.9,319.9c0.7-0.5,1.5-1,2.2-1.6c-1.4,1.1-2.9,2.1-4.4,3.1c0.5-0.3,0.9-0.6,1.4-1
				C401.4,320.3,401.6,320.1,401.9,319.9z"/>
			<path fill="#162020" d="M400,322l-0.7-1h0c0,0,0,0,0,0l0,0c0.6-0.4,1.2-0.8,1.9-1.3l0.3-0.2c0.5-0.4,1.1-0.8,1.6-1.2
				c0.2-0.1,0.4-0.3,0.5-0.4l0.7,1c-0.2,0.1-0.4,0.3-0.5,0.4c-0.6,0.5-1.3,0.9-1.9,1.4l-0.5,0.4c-0.4,0.2-0.7,0.5-1.1,0.7L400,322
				C400.1,322,400.1,322,400,322z"/>
		</g>
		<g>
			<path fill="#C44EB9" d="M448.7,254.3c0.1-0.4,0.2-0.7,0.3-1.1C448.9,253.6,448.8,253.9,448.7,254.3z"/>
			<polygon fill="#162020" points="449.3,254.5 448.1,254.1 448.4,253.1 449.6,253.4 			"/>
		</g>
		<g>
			<path fill="#C44EB9" d="M392.7,325.9c0.1-0.1,0.2-0.1,0.3-0.2c0.7-0.4,1.4-0.9,2.2-1.3c0.3-0.2,0.6-0.4,0.9-0.6
				c0.7-0.4,1.4-0.9,2-1.3c0.3-0.2,0.6-0.4,1-0.6c0.1-0.1,0.3-0.2,0.4-0.3c-3.1,2.1-6.3,4-9.5,5.8c0,0,0,0,0,0c0,0,0,0,0,0
				c0,0,0,0,0,0C390.9,326.9,391.8,326.4,392.7,325.9z"/>
			<path fill="#162020" d="M390,328.1l-0.3-0.1l-1.1-0.5l0,0l-0.1,0l1.1-0.5c3.2-1.8,6.4-3.7,9.5-5.8l0.7,1l-1.4,0.9
				c-0.7,0.4-1.4,0.9-2.1,1.3c-0.2,0.1-0.5,0.3-0.7,0.4l-0.2,0.1c-0.7,0.4-1.4,0.9-2.2,1.3l-0.3,0.2c-0.8,0.5-1.6,0.9-2.4,1.4
				L390,328.1z"/>
		</g>
		<g>
			<path fill="#C44EB9" d="M409.3,314.3c0.6-0.5,1.3-1.1,1.9-1.6c0.3-0.2,0.5-0.5,0.8-0.7c0.6-0.5,1.2-1.1,1.8-1.6
				c0.3-0.2,0.5-0.5,0.8-0.7c0.6-0.6,1.2-1.2,1.9-1.8c0.1-0.1,0.3-0.3,0.4-0.4c2.1-2.1,4.1-4.2,6.1-6.4c0.2-0.2,0.4-0.4,0.5-0.6
				c0.6-0.6,1.1-1.3,1.7-2c0.2-0.2,0.4-0.5,0.6-0.7c0.5-0.7,1.1-1.3,1.6-2c0.2-0.2,0.3-0.4,0.5-0.6c2.5-3.2,4.8-6.6,7-10
				c0.1-0.2,0.3-0.4,0.4-0.6c0.5-0.8,0.9-1.6,1.4-2.3c0.1-0.2,0.3-0.4,0.4-0.7c0.5-0.8,0.9-1.6,1.4-2.5c0-0.1,0.1-0.2,0.1-0.3
				c1.5-2.8,3-5.7,4.3-8.7c0-0.1,0-0.1,0.1-0.2c0.4-0.9,0.8-1.8,1.2-2.7c0.1-0.2,0.2-0.4,0.2-0.5c0.2-0.4,0.3-0.9,0.5-1.3
				c-7.8,19.5-20.4,36.5-36.4,49.6c0,0,0,0,0,0c0,0,0.1-0.1,0.1-0.1C408.9,314.6,409.1,314.4,409.3,314.3z"/>
			<path fill="#162020" d="M408.1,316l-0.2-1.4l0.3-0.3c16-13.1,28.5-30.2,36.2-49.4h0l1.2,0.5h0l-0.2,0.5c-0.1,0.3-0.2,0.6-0.3,0.8
				l-0.2,0.5c-0.4,0.9-0.8,1.8-1.2,2.8l-0.1,0.2c-1.3,2.9-2.8,5.9-4.3,8.7l-0.1,0.2c-0.5,0.9-1,1.7-1.4,2.6l-0.4,0.7
				c-0.5,0.8-0.9,1.6-1.4,2.4l-0.4,0.6c-2.2,3.5-4.5,6.8-7,10.1l-0.5,0.6c-0.5,0.7-1.1,1.4-1.6,2c-0.2,0.3-0.4,0.5-0.6,0.8
				c-0.6,0.7-1.1,1.3-1.7,2l-0.6,0.6c-2,2.2-4,4.4-6.1,6.4l-0.4,0.4c-0.6,0.6-1.2,1.2-1.9,1.8l-0.8,0.7c-0.6,0.6-1.2,1.1-1.8,1.7
				c-0.3,0.2-0.5,0.5-0.8,0.7c-0.6,0.5-1.3,1.1-1.9,1.6v0c0,0,0,0,0,0L408.1,316z"/>
		</g>
		<g>
			<path fill="#9180F4" d="M413.5,250c13.5-5.1,25.3-5.9,35.2-6v0c0.2,0,0.4,0,0.7,0c0.2,0,0.4,0,0.7,0v0c0.4,0,0.8,0,1.2,0
				c1.1-5.5,1.8-11.1,2.2-16.8c-0.1,2.3-0.3,4.6-0.6,6.9c-1.2,0.1-2.4,0.2-3.6,0.2c-23.6,0-42.8-19.1-42.8-42.6
				c0-17.9,11.1-33.2,26.8-39.5c-10.9-16.4-25.7-30.1-43.1-39.6c-17.3,9.5-32.1,23.2-43.1,39.6c15.7,6.3,26.9,21.6,26.9,39.5
				c0,23.5-19.1,42.6-42.8,42.6c-1.3,0-2.5-0.1-3.8-0.2c0.4,3.4,0.9,6.7,1.5,10c0.6,0,1.2,0,1.8,0v0c0.2,0,0.4,0,0.7,0
				c0.2,0,0.5,0,0.7,0v0c9.9,0.1,21.7,0.9,35.2,6c9.3,3.5,17,8.9,23.2,16.3C396.5,258.9,404.2,253.5,413.5,250z"/>
			<path fill="#162020" d="M390.3,267.3l-0.5-0.6c-6.1-7.3-13.8-12.7-22.9-16.1c-13.5-5.1-25.3-5.9-35-5.9l-0.5,0l-0.1,0l-0.4,0
				l-0.3,0c-0.4,0-0.8,0-1.1,0l-1.2,0l-0.1-0.5c-0.6-3.2-1.2-6.6-1.6-10l-0.1-0.8l0.8,0.1c1.3,0.1,2.6,0.2,3.7,0.2
				c23.2,0,42.1-18.8,42.1-42c0-17.3-10.4-32.5-26.5-39l-0.7-0.3l0.4-0.6c11-16.5,25.9-30.2,43.3-39.8l0.3-0.2l0.3,0.2
				c17.3,9.5,32.3,23.3,43.3,39.8l0.4,0.6l-0.7,0.3c-16,6.4-26.4,21.7-26.4,38.9c0,23.1,18.9,42,42.1,42c1,0,2,0,3.1-0.1
				c0.2-2.1,0.4-4.2,0.5-6.4l1.2,0.1c-0.3,5.7-1.1,11.4-2.2,16.9l-0.1,0.5l-1,0c-0.2,0-0.5,0-0.7,0l-0.5,0l-0.1,0l-0.4,0l-0.3,0
				c-9.7,0.1-21.4,0.8-35,5.9l0,0c-9.1,3.4-16.8,8.8-22.9,16.1L390.3,267.3z M332.6,243.4c9.7,0.1,21.3,0.9,34.8,6
				c9.1,3.4,16.8,8.8,23,15.9c6.2-7.2,13.9-12.5,22.9-15.9c13.4-5.1,25.1-5.9,34.8-6v0l0.6,0l0.7,0l1.3,0v0c0,0,0,0,0,0
				c0.6-2.8,1-5.7,1.4-8.6c-1,0.1-2,0.1-2.9,0.1c-23.9,0-43.4-19.4-43.4-43.2c0-17.5,10.4-33,26.4-39.8
				c-10.8-16-25.3-29.3-42.1-38.6c-16.8,9.3-31.3,22.6-42.1,38.6c16.2,6.8,26.6,22.3,26.6,39.8c0,23.8-19.5,43.2-43.4,43.2
				c-1,0-2,0-3.1-0.1c0.4,3,0.8,5.9,1.3,8.7l0.1,0c0.2,0,0.4,0,0.5,0v0l0.6,0l0.7,0L332.6,243.4L332.6,243.4z"/>
		</g>
		<g>
			<path fill="#C44EB9" d="M448.7,254.3c-0.3,0.9-0.6,1.9-0.8,2.8c-0.1,0.4-0.3,0.8-0.4,1.2c-0.1,0.4-0.3,0.9-0.4,1.3
				c0.9-2.5,1.6-5,2.3-7.6c-0.1,0.4-0.2,0.8-0.3,1.2C448.9,253.6,448.8,253.9,448.7,254.3z"/>
			<path fill="#162020" d="M447.6,259.8l-1.2-0.4v0l0,0c0,0,0,0,0,0c0.1-0.3,0.2-0.6,0.3-0.9l0.3-0.8c0.1-0.2,0.1-0.3,0.2-0.5
				c0.2-0.6,0.4-1.2,0.6-1.8c0.1-0.4,0.2-0.8,0.4-1.2l0.4-1.4c0.1-0.3,0.2-0.6,0.2-0.8v0l0,0l1.2,0.3c-0.3,1.2-0.7,2.3-1,3.5
				c-0.2,0.5-0.3,1.1-0.5,1.6c0,0.1-0.1,0.2-0.1,0.3C448.1,258.3,447.8,259.1,447.6,259.8L447.6,259.8
				C447.6,259.8,447.6,259.8,447.6,259.8z"/>
		</g>
		<g>
			<path fill="#C44EB9" d="M408.6,314.9C408.6,314.9,408.6,314.9,408.6,314.9c-0.1,0.1-0.3,0.2-0.4,0.3
				C408.3,315.1,408.4,315,408.6,314.9z"/>
			<polygon fill="#162020" points="408.5,315.7 408,315 408,315 408,315 407.8,314.7 407.8,314.7 409,313.7 409.2,314.9 
				409.2,315.2 			"/>
		</g>
		<g>
			<path fill="#C44EB9" d="M398.1,322.5c-0.7,0.4-1.4,0.9-2,1.3C396.7,323.4,397.4,323,398.1,322.5z"/>
			<path fill="#162020" d="M396.4,324.4l-0.7-1.1c0.7-0.4,1.4-0.9,2-1.3l0.7,1C397.8,323.5,397.1,323.9,396.4,324.4z"/>
		</g>
		<g>
			<path fill="#C44EB9" d="M408.2,315.2c-0.1,0-0.1,0.1-0.2,0.1c-1.2,1-2.4,1.9-3.6,2.8c-0.1,0-0.1,0.1-0.2,0.1
				C405.5,317.3,406.9,316.2,408.2,315.2z"/>
			<path fill="#162020" d="M404.6,318.8l-0.7-1l0.2-0.1c1.2-0.9,2.3-1.8,3.6-2.8l0.1-0.1l0,0c0,0,0,0,0.1-0.1l0.8,1l0,0
				C407.1,316.8,405.8,317.8,404.6,318.8z"/>
		</g>
		<g>
			<path fill="#C44EB9" d="M450.5,247.2c0-0.1,0-0.1,0-0.2C450.5,247,450.5,247.1,450.5,247.2C450.5,247.1,450.5,247.1,450.5,247.2z
				"/>
			<path fill="#162020" d="M451.1,247.2l-0.6-0.1l-0.6-0.1l0-0.2l1.2,0.3L451.1,247.2L451.1,247.2L451.1,247.2z M449.9,247l0.6,0.1
				L449.9,247z"/>
		</g>
		<g>
			<path fill="#C44EB9" d="M404.2,318.3C404.2,318.3,404.2,318.3,404.2,318.3C404.2,318.3,404.2,318.3,404.2,318.3z"/>
			<polygon fill="#162020" points="404.5,318.8 404.1,318.3 403.8,317.8 			"/>
		</g>
		<g>
			<path fill="#C44EB9" d="M401.1,320.5c-0.5,0.3-0.9,0.6-1.4,1c-0.1,0-0.1,0.1-0.2,0.1c-0.1,0.1-0.3,0.2-0.4,0.3
				C399.7,321.4,400.4,321,401.1,320.5z"/>
			<path fill="#162020" d="M399.4,322.4l-0.7-1l1-0.7c0.3-0.2,0.6-0.4,0.9-0.6c0,0,0.1-0.1,0.1-0.1h0c0,0,0,0,0,0l0.7,1
				c0,0-0.1,0.1-0.1,0.1C400.7,321.5,400.1,322,399.4,322.4L399.4,322.4C399.4,322.4,399.4,322.4,399.4,322.4z"/>
		</g>
		<g>
			<path fill="#C44EB9" d="M449.8,250.1c0,0.2-0.1,0.3-0.1,0.5c0.3-1,0.5-2,0.7-3c0,0.1-0.1,0.3-0.1,0.4
				C450.1,248.8,450,249.5,449.8,250.1z"/>
			<path fill="#162020" d="M450.3,250.8l-1.2-0.3l0.1-0.5c0.2-0.7,0.3-1.4,0.5-2.1l0.1-0.4c0,0,0,0,0,0l1.2,0.3
				C450.8,248.8,450.5,249.8,450.3,250.8z"/>
		</g>
		<g>
			<path fill="#C44EB9" d="M449.4,251.7c0.1-0.3,0.1-0.5,0.2-0.8c0,0.1-0.1,0.2-0.1,0.3C449.5,251.4,449.4,251.6,449.4,251.7z"/>
			
				<rect x="449.1" y="250.7" transform="matrix(0.2587 -0.966 0.966 0.2587 90.4459 620.4965)" fill="#162020" width="0.8" height="1.2"/>
		</g>
		<g>
			<path fill="#C44EB9" d="M408.7,314.7c0,0-0.1,0.1-0.1,0.1c0,0,0,0,0,0C408.6,314.8,408.6,314.8,408.7,314.7z"/>
			<polygon fill="#162020" points="409,315.3 408.2,314.4 408.2,314.4 408.2,314.4 408.3,314.3 409.1,315.2 408.7,314.7 
				409.1,315.2 			"/>
		</g>
		<g>
			<path fill="#C44EB9" d="M395.1,324.4c-0.7,0.4-1.4,0.9-2.2,1.3C393.7,325.3,394.4,324.9,395.1,324.4z"/>
			<path fill="#162020" d="M393.3,326.3l-0.6-1.1c0.7-0.4,1.4-0.9,2.2-1.3l0.7,1.1C394.7,325.4,394,325.8,393.3,326.3z"/>
		</g>
		<g>
			<path fill="#C44EB9" d="M444.2,267.1c-0.4,0.9-0.8,1.8-1.2,2.7C443.4,268.9,443.8,268,444.2,267.1z"/>
			<path fill="#162020" d="M443.6,270.1l-1.1-0.5c0.4-0.9,0.8-1.8,1.2-2.7l1.2,0.5C444.4,268.2,444,269.1,443.6,270.1z"/>
		</g>
		<g>
			<path fill="#C44EB9" d="M442.9,269.9c-1.3,2.9-2.7,5.8-4.3,8.7C440.2,275.8,441.6,272.9,442.9,269.9z"/>
			<path fill="#162020" d="M439.2,278.9l-1.1-0.6c1.5-2.8,3-5.7,4.3-8.6l1.1,0.5C442.2,273.1,440.7,276.1,439.2,278.9z"/>
		</g>
		<g>
			<path fill="#C44EB9" d="M425.2,298.4c-0.6,0.7-1.1,1.3-1.7,2C424.1,299.7,424.6,299,425.2,298.4z"/>
			<path fill="#162020" d="M424,300.8l-0.9-0.8c0.6-0.6,1.1-1.3,1.7-2l1,0.8C425.1,299.4,424.6,300.1,424,300.8z"/>
		</g>
		<g>
			<path fill="#C44EB9" d="M404.1,318.3C404.1,318.3,404.1,318.3,404.1,318.3c-0.8,0.6-1.5,1.1-2.2,1.6
				C402.6,319.4,403.4,318.9,404.1,318.3z"/>
			<path fill="#162020" d="M402.3,320.5l-0.7-1c0,0,0,0,0.1,0c0.7-0.5,1.4-1,2.1-1.5l0,0c0,0,0,0,0,0l0.8,1l0,0
				C403.8,319.4,403,319.9,402.3,320.5z"/>
		</g>
		<g>
			<path fill="#C44EB9" d="M438.5,278.9c-0.5,0.8-0.9,1.6-1.4,2.5C437.6,280.5,438,279.7,438.5,278.9z"/>
			<path fill="#162020" d="M437.6,281.6l-1.1-0.6c0.5-0.8,0.9-1.6,1.4-2.5l1.1,0.6C438.6,280,438.1,280.8,437.6,281.6z"/>
		</g>
		<g>
			<path fill="#C44EB9" d="M434.9,285c-2.2,3.5-4.5,6.8-7,10C430.4,291.8,432.7,288.4,434.9,285z"/>
			<path fill="#162020" d="M428.4,295.3l-1-0.8c2.5-3.2,4.8-6.5,7-10c0,0,0,0,0,0l0,0l1.1,0.7c0,0,0,0,0,0
				C433.3,288.8,430.9,292.1,428.4,295.3z"/>
		</g>
		<g>
			<path fill="#C44EB9" d="M427.4,295.6c-0.5,0.7-1.1,1.4-1.6,2C426.4,297,426.9,296.3,427.4,295.6z"/>
			<path fill="#162020" d="M426.3,298l-1-0.8c0.5-0.7,1.1-1.3,1.6-2l1,0.8C427.4,296.7,426.8,297.3,426.3,298z"/>
		</g>
		<g>
			<path fill="#C44EB9" d="M416.5,307.8c-0.6,0.6-1.2,1.2-1.9,1.8C415.3,309,415.9,308.4,416.5,307.8z"/>
			<path fill="#162020" d="M415.1,310l-0.9-0.9c0.6-0.6,1.2-1.2,1.8-1.7l0.9,0.9C416.3,308.8,415.7,309.4,415.1,310z"/>
		</g>
		<g>
			<path fill="#C44EB9" d="M423,301c-1.9,2.2-4,4.3-6.1,6.4C419,305.3,421,303.2,423,301z"/>
			<path fill="#162020" d="M417.3,307.8l-0.9-0.9c2.1-2,4.1-4.2,6-6.4l0.9,0.8C421.5,303.6,419.4,305.8,417.3,307.8z"/>
		</g>
		<g>
			<path fill="#C44EB9" d="M413.9,310.3c-0.6,0.6-1.2,1.1-1.8,1.6C412.6,311.4,413.3,310.8,413.9,310.3z"/>
			<path fill="#162020" d="M412.4,312.4l-0.8-0.9c0.6-0.5,1.2-1.1,1.8-1.6l0.8,0.9C413.7,311.3,413.1,311.8,412.4,312.4z"/>
		</g>
		<g>
			<path fill="#C44EB9" d="M451.2,244.1c-0.2,0.8-0.3,1.7-0.5,2.5C450.8,245.8,451,244.9,451.2,244.1z"/>
			<path fill="#162020" d="M451.2,246.7l-1.2-0.3c0,0,0,0,0,0l0,0c0,0,0,0,0,0c0.2-0.8,0.4-1.6,0.5-2.5l1.2,0.2
				C451.6,245.1,451.4,245.9,451.2,246.7C451.2,246.7,451.2,246.7,451.2,246.7C451.2,246.7,451.2,246.7,451.2,246.7z"/>
		</g>
		<g>
			<path fill="#C44EB9" d="M444.9,265.2c-0.2,0.4-0.3,0.9-0.5,1.3c0.4-0.9,0.7-1.8,1.1-2.7c-0.1,0.2-0.2,0.4-0.2,0.6
				C445.1,264.6,445,264.9,444.9,265.2z"/>
			<path fill="#162020" d="M445,266.8l-1.2-0.5c0.1-0.3,0.2-0.5,0.3-0.8l0.8-1.9l0,0l1.2,0.4C445.7,264.9,445.3,265.8,445,266.8
				L445,266.8L445,266.8z"/>
		</g>
		<g>
			<path fill="#C44EB9" d="M446.3,261.4c-0.1,0.4-0.3,0.8-0.4,1.2c-0.1,0.2-0.2,0.5-0.2,0.7c0.5-1.2,0.9-2.5,1.3-3.7
				c0,0.1-0.1,0.2-0.1,0.3C446.7,260.4,446.5,260.9,446.3,261.4z"/>
			<path fill="#162020" d="M446.2,263.6l-1.2-0.4v0l0.2-0.7c0.2-0.4,0.3-0.8,0.4-1.2c0.2-0.5,0.4-1,0.5-1.5l0.1-0.3c0,0,0,0,0,0
				l1.2,0.4l0,0C447.1,261.1,446.7,262.3,446.2,263.6L446.2,263.6z"/>
		</g>
		<g>
			<path fill="#C44EB9" d="M436.7,282c-0.5,0.8-0.9,1.6-1.4,2.3C435.8,283.6,436.3,282.8,436.7,282z"/>
			<path fill="#162020" d="M435.8,284.7l-1.1-0.7c0.5-0.8,0.9-1.5,1.4-2.3l1.1,0.6C436.8,283.1,436.3,283.9,435.8,284.7z"/>
		</g>
		<g>
			<path fill="#C44EB9" d="M411.2,312.6c-0.6,0.5-1.3,1.1-1.9,1.6C409.9,313.7,410.6,313.2,411.2,312.6z"/>
			<path fill="#162020" d="M409.7,314.7l-0.8-1c0.6-0.5,1.3-1.1,1.9-1.6l0.8,0.9C411,313.6,410.3,314.2,409.7,314.7z"/>
		</g>
		<g>
			<path fill="#C44EB9" d="M390,327.4C390,327.4,390,327.4,390,327.4c0.9-0.5,1.8-1,2.6-1.5C391.8,326.4,390.9,326.9,390,327.4z"/>
			<path fill="#162020" d="M390,328.1l-0.3-0.2l-1.1-0.5l1.1-0.5c0.9-0.5,1.7-0.9,2.5-1.4l0,0c0,0,0.1,0,0.1,0l0.6,1.1
				c0,0-0.1,0-0.1,0.1c-0.9,0.5-1.7,1-2.5,1.4L390,328.1z"/>
		</g>
		<g>
			<path fill="#A193F2" d="M406.3,191.7c0,23.5,19.1,42.6,42.8,42.6c1.2,0,2.4-0.1,3.6-0.2c0.3-2.3,0.5-4.6,0.6-6.9
				c0-0.2,0-0.3,0-0.5c0.1-1,0.1-2,0.1-3c0-1.3,0.1-2.5,0.1-3.8c0,0,0,0,0,0c0-1.5,0-3-0.1-4.5c0-0.5-0.1-1-0.1-1.4
				c0-1-0.1-2-0.2-3.1c0-0.5-0.1-1.1-0.1-1.6c-0.1-0.9-0.2-1.9-0.3-2.8c-0.1-0.6-0.1-1.1-0.2-1.7c-0.1-0.9-0.2-1.8-0.4-2.8
				c-0.1-0.5-0.2-1.1-0.3-1.6c-0.1-0.9-0.3-1.9-0.5-2.8c-0.1-0.5-0.2-1-0.3-1.5c-0.2-1-0.4-1.9-0.6-2.9c-0.1-0.5-0.2-0.9-0.3-1.4
				c-0.2-1-0.5-2-0.7-3c-0.1-0.4-0.2-0.8-0.3-1.2c-0.3-1.1-0.6-2.1-0.9-3.2c-0.1-0.3-0.2-0.6-0.3-0.9c-0.4-1.2-0.7-2.3-1.1-3.5
				c-0.1-0.2-0.1-0.4-0.2-0.6c-3.4-9.7-8-18.9-13.6-27.4c0,0,0,0,0,0C417.4,158.5,406.3,173.8,406.3,191.7z"/>
			<path fill="#162020" d="M449.1,234.9c-23.9,0-43.4-19.4-43.4-43.2c0-17.7,10.7-33.4,27.2-40.1l0.5-0.2l0.3,0.4
				c5.7,8.6,10.3,17.8,13.7,27.5l0.2,0.6c0.4,1.2,0.8,2.3,1.2,3.5l0.3,1c0.3,1.1,0.6,2.1,0.9,3.2c0.1,0.4,0.2,0.8,0.3,1.2
				c0.3,1,0.5,2,0.8,3c0.1,0.5,0.2,0.9,0.3,1.4c0.2,1,0.4,1.9,0.6,2.9c0.1,0.5,0.2,1,0.3,1.5c0.2,0.9,0.3,1.9,0.5,2.8l0,0.3
				c0.1,0.4,0.1,0.9,0.2,1.3c0.1,0.9,0.3,1.8,0.4,2.8l0.1,0.5c0.1,0.4,0.1,0.8,0.1,1.2c0.1,0.9,0.2,1.9,0.3,2.8l0.1,0.6
				c0,0.4,0.1,0.7,0.1,1.1c0.1,1,0.1,2,0.2,3.1l0,0.5c0,0.3,0,0.6,0,0.9c0.1,1.5,0.1,3,0.1,4.5c0,1.3,0,2.6-0.1,3.8c0,1-0.1,2-0.1,3
				l0,0.5c-0.1,2.3-0.3,4.6-0.6,6.9l-0.1,0.5l-0.5,0C451.4,234.8,450.2,234.9,449.1,234.9z M432.8,153
				c-15.8,6.5-25.9,21.7-25.9,38.7c0,23.1,18.9,42,42.1,42c1,0,2,0,3.1-0.1c0.2-2.1,0.4-4.2,0.5-6.4l0-0.5c0.1-1,0.1-2,0.1-2.9
				c0-1.3,0.1-2.5,0.1-3.8c0-1.5,0-3-0.1-4.5c0-0.3,0-0.6,0-0.9l0-0.6c0-1-0.1-2-0.2-3c0-0.3-0.1-0.7-0.1-1l-0.1-0.6
				c-0.1-0.9-0.2-1.9-0.3-2.8c0-0.4-0.1-0.8-0.1-1.2L452,205c-0.1-0.9-0.2-1.8-0.4-2.7c-0.1-0.4-0.1-0.9-0.2-1.3l0-0.3
				c-0.1-0.9-0.3-1.8-0.5-2.8c-0.1-0.5-0.2-1-0.3-1.5c-0.2-1-0.4-1.9-0.6-2.8c-0.1-0.5-0.2-0.9-0.3-1.4c-0.2-1-0.5-2-0.7-3
				c-0.1-0.4-0.2-0.8-0.3-1.2c-0.3-1.1-0.6-2.1-0.9-3.2l-0.3-0.9c-0.4-1.2-0.7-2.3-1.1-3.5l-0.2-0.6
				C442.8,170.4,438.4,161.3,432.8,153z"/>
		</g>
		<g>
			<path fill="#A193F2" d="M444.9,265.2c0.1-0.3,0.2-0.6,0.3-0.9c0.2-0.6,0.4-1.1,0.6-1.7c0.2-0.4,0.3-0.8,0.4-1.2
				c0.2-0.5,0.4-1,0.5-1.5c0.2-0.6,0.4-1.1,0.6-1.7c0.1-0.4,0.3-0.8,0.4-1.2c0.3-0.9,0.6-1.9,0.8-2.8c0.1-0.4,0.2-0.7,0.3-1.1
				c0.2-0.7,0.4-1.3,0.5-2c0.1-0.4,0.2-0.7,0.3-1.1c0.2-0.7,0.3-1.4,0.5-2.1c0.1-0.3,0.2-0.6,0.2-1c0.2-1,0.4-2,0.6-3c0,0,0,0,0,0
				c-0.4,0-0.8,0-1.2,0v0c-0.2,0-0.4,0-0.7,0c-0.2,0-0.5,0-0.7,0v0c-9.9,0.1-21.7,0.9-35.2,6c-9.3,3.5-17,8.9-23.1,16.3
				c7.8,9.3,13.2,21.6,16.3,37c0,0.2,0.1,0.4,0.1,0.6c0.2,0.9,0.4,1.8,0.5,2.8c0.1,0.3,0.1,0.6,0.2,0.9c0.2,0.9,0.3,1.8,0.4,2.7
				c0,0.3,0.1,0.6,0.1,0.8c0.2,1.2,0.3,2.4,0.5,3.6C424.5,301.7,437.2,284.7,444.9,265.2z"/>
			<path fill="#162020" d="M408.1,316l-0.1-1.1c-0.2-1.2-0.3-2.4-0.5-3.6l-0.1-0.8c-0.1-0.9-0.3-1.8-0.4-2.7l-0.2-0.9
				c-0.2-0.9-0.3-1.8-0.5-2.8l-0.1-0.6c-3.2-15.3-8.6-27.7-16.2-36.8l-0.3-0.4l0.3-0.4c6.3-7.5,14.1-13,23.4-16.5
				c13.4-5.1,25.1-5.9,34.8-6v0l0.6,0l0.7,0l1.3,0v0c0,0,0,0,0.1,0l1.2,0l-0.1,0.7c-0.2,1.1-0.4,2.1-0.7,3.1
				c-0.1,0.3-0.1,0.5-0.2,0.8l0,0.2c-0.2,0.7-0.3,1.4-0.5,2.1c-0.1,0.4-0.2,0.7-0.3,1.1c-0.2,0.7-0.4,1.3-0.5,2l-0.3,1.1
				c-0.3,0.9-0.6,1.9-0.8,2.8c-0.1,0.3-0.2,0.5-0.3,0.8l-0.1,0.4c-0.2,0.6-0.4,1.1-0.6,1.7c-0.2,0.5-0.4,1-0.5,1.5
				c-0.1,0.4-0.3,0.8-0.5,1.2c-0.2,0.6-0.4,1.1-0.6,1.7l-0.3,0.9c-7.7,19.3-20.3,36.6-36.5,49.9L408.1,316z M391.2,266.3
				c7.7,9.3,12.9,21.4,16.1,36.9l0.1,0.6c0.2,0.9,0.4,1.8,0.5,2.8l0.2,0.9c0.2,0.9,0.3,1.8,0.4,2.7l0.1,0.8c0.1,0.8,0.2,1.7,0.4,2.5
				c15.6-13,27.8-29.8,35.3-48.6l0.3-0.9c0.2-0.6,0.4-1.1,0.6-1.7c0.2-0.4,0.3-0.8,0.4-1.2c0.2-0.5,0.4-1,0.5-1.5
				c0.2-0.5,0.4-1.1,0.6-1.6l0.1-0.4c0.1-0.2,0.2-0.5,0.2-0.8c0.3-0.9,0.6-1.8,0.8-2.8l0.3-1.1c0.2-0.7,0.4-1.3,0.5-2l0.3-1.1
				c0.2-0.7,0.3-1.4,0.5-2.1l0-0.2c0.1-0.3,0.1-0.5,0.2-0.8c0.2-0.8,0.3-1.5,0.5-2.3c-0.1,0-0.3,0-0.4,0l-0.5,0l-0.1,0l-0.4,0
				l-0.3,0c-9.7,0.1-21.4,0.8-35,5.9C404.8,253.9,397.2,259.2,391.2,266.3z"/>
		</g>
		<g>
			<path fill="#C44EB9" d="M445.9,262.7c0.2-0.4,0.3-0.8,0.4-1.2C446.2,261.8,446,262.3,445.9,262.7z"/>
			<path fill="#162020" d="M446.5,262.9l-1.2-0.4c0.2-0.4,0.3-0.8,0.4-1.2l1.2,0.4C446.8,262.1,446.6,262.5,446.5,262.9z"/>
		</g>
		<g>
			<path fill="#C44EB9" d="M446.9,259.9c0-0.1,0.1-0.2,0.1-0.3c0,0,0,0,0,0c0.2-0.4,0.3-0.9,0.4-1.3
				C447.2,258.8,447.1,259.4,446.9,259.9z"/>
			<path fill="#162020" d="M447.5,260.1l-1.2-0.4l0,0c0.2-0.5,0.4-1.1,0.6-1.6v0l1.2,0.4c0,0,0,0,0,0l-0.1,0.4
				c-0.1,0.3-0.2,0.6-0.3,0.9L447.5,260.1C447.5,260.1,447.5,260.1,447.5,260.1z"/>
		</g>
		<g>
			<path fill="#C44EB9" d="M447.8,257.1c0.3-0.9,0.6-1.9,0.8-2.8C448.4,255.2,448.1,256.2,447.8,257.1z"/>
			<path fill="#162020" d="M448.4,257.3l-1.2-0.4c0.3-0.9,0.6-1.8,0.8-2.8l1.2,0.3C449,255.4,448.7,256.3,448.4,257.3z"/>
		</g>
		<g>
			<path fill="#C44EB9" d="M450.5,247.1c0,0,0-0.1,0-0.1c0-0.1,0.1-0.3,0.1-0.4c0.2-0.8,0.4-1.7,0.5-2.5c0,0,0,0,0,0
				C451,245.1,450.7,246.1,450.5,247.1z"/>
			<path fill="#162020" d="M451.1,247.2l-1.2-0.3l0,0c0.2-1,0.4-2,0.6-3l1.2,0.1l0,0.1c-0.2,0.8-0.3,1.7-0.5,2.5l-0.1,0.4
				C451.1,247.2,451.1,247.2,451.1,247.2z"/>
		</g>
		<g>
			<path fill="#C44EB9" d="M444.9,265.2c0.1-0.3,0.2-0.6,0.3-0.9C445.1,264.6,445,264.9,444.9,265.2z"/>
			<polygon fill="#162020" points="445.5,265.4 444.3,265 444.7,264.1 445.8,264.6 			"/>
		</g>
		<g>
			<path fill="#C44EB9" d="M449,253.2c0.1-0.4,0.2-0.8,0.3-1.2c0-0.1,0.1-0.2,0.1-0.3c0-0.2,0.1-0.3,0.1-0.5
				C449.3,251.9,449.1,252.6,449,253.2z"/>
			<path fill="#162020" d="M449.6,253.4l-1.2-0.3c0.2-0.7,0.4-1.3,0.5-2v0l1.2,0.3v0l-0.2,0.8c-0.1,0.3-0.2,0.6-0.2,0.9L449.6,253.4
				C449.6,253.4,449.6,253.4,449.6,253.4L449.6,253.4z"/>
		</g>
		<g>
			<path fill="#C44EB9" d="M449.8,250.1c0.2-0.7,0.3-1.4,0.5-2.1C450.1,248.8,450,249.5,449.8,250.1z"/>
			<path fill="#162020" d="M450.4,250.3l-1.2-0.3c0.2-0.7,0.3-1.4,0.5-2.1l1.2,0.3C450.7,248.9,450.6,249.6,450.4,250.3z"/>
		</g>
	</g>
	<g>
		<path fill="#162020" d="M449,343.2c-67.9,0-123.2-55.3-123.2-123.2c0-67.9,55.3-123.2,123.2-123.2S572.2,152.1,572.2,220
			C572.2,287.9,516.9,343.2,449,343.2z M449,98.1c-67.2,0-121.9,54.7-121.9,121.9c0,67.2,54.7,121.9,121.9,121.9
			S570.9,287.2,570.9,220C570.9,152.8,516.2,98.1,449,98.1z"/>
	</g>
	<g>
		<g>
			<g>
				<g>
					<g>
						<path fill="#56ADF5" d="M142.3,272.4C142.3,272.4,142.3,272.4,142.3,272.4c-0.2,0-0.4-0.1-0.5-0.2l-7.6-9.2h-25.8
							c-2.4,0-4.3-1.9-4.3-4.3v-54.7c0-2.4,1.9-4.3,4.3-4.3h67c2.4,0,4.3,1.9,4.3,4.3v54.7c0,2.4-1.9,4.3-4.3,4.3h-24.8l-7.8,9.2
							C142.7,272.3,142.5,272.4,142.3,272.4z"/>
						<path fill="#162020" d="M142.3,273L142.3,273c-0.4,0-0.7-0.2-1-0.5l-7.4-9h-25.5c-2.7,0-4.9-2.2-4.9-4.9v-54.7
							c0-2.7,2.2-4.9,4.9-4.9h67c2.7,0,4.9,2.2,4.9,4.9v54.7c0,2.7-2.2,4.9-4.9,4.9h-24.5l-7.6,9C143,272.8,142.7,273,142.3,273z
							 M108.4,200.2c-2,0-3.7,1.7-3.7,3.7v54.7c0,2,1.7,3.7,3.7,3.7h26.1l7.8,9.4c0,0,0,0,0,0l8-9.4h25c2,0,3.7-1.7,3.7-3.7v-54.7
							c0-2-1.7-3.7-3.7-3.7H108.4z"/>
					</g>
				</g>
			</g>
		</g>
		<g>
			<g>
				<g>
					<g>
						<g>
							<path fill="#FFFFFF" d="M141.9,248.1L141.9,248.1L141.9,248.1l13.9-13.9c3.5-3.5,3.5-9.2,0-12.7c0,0,0,0,0,0
								c-3.5-3.5-9.2-3.5-12.7,0l-1.1,1.1l0,0l0,0l-1.1-1.1c-3.5-3.5-9.2-3.5-12.7,0c0,0,0,0,0,0c-3.5,3.5-3.5,9.2,0,12.7
								L141.9,248.1L141.9,248.1L141.9,248.1z"/>
						</g>
						<g>
							<path fill="#162020" d="M141.9,249L141.9,249L141.9,249l-0.5-0.4l-13.8-13.9c-3.8-3.8-3.8-9.9,0-13.6c3.8-3.8,9.9-3.7,13.6,0
								l0.7,0.7l0.7-0.7c3.7-3.7,9.8-3.8,13.6,0c3.8,3.8,3.8,9.9,0,13.6L141.9,249z M134.4,219.5c-2.1,0-4.3,0.8-5.9,2.4
								c-3.3,3.3-3.3,8.6,0,11.9l13.4,13.4l0,0l0,0l13.4-13.4c3.3-3.3,3.3-8.6,0-11.8c-3.3-3.3-8.6-3.3-11.8,0l-1.5,1.5l0,0l0,0
								l-1.5-1.5C138.7,220.3,136.5,219.5,134.4,219.5z"/>
						</g>
					</g>
				</g>
			</g>
		</g>
	</g>
	<g>
		<g>
			<g>
				<g>
					<g>
						<path fill="#DB61DB" d="M638.5,272.4C638.5,272.4,638.5,272.4,638.5,272.4c-0.2,0-0.4-0.1-0.5-0.2l-6.9-8.4
							c-0.4-0.5-1.1-0.8-1.7-0.8h-22.5c-3.6,0-6.6-2.9-6.6-6.6v-50.2c0-3.6,2.9-6.6,6.6-6.6h62.5c3.6,0,6.6,2.9,6.6,6.6v50.2
							c0,3.6-2.9,6.6-6.6,6.6h-21.5c-0.7,0-1.3,0.3-1.7,0.8l-7.2,8.4C638.9,272.3,638.7,272.4,638.5,272.4z"/>
						<path fill="#162020" d="M638.5,273L638.5,273c-0.4,0-0.7-0.2-1-0.5l-6.9-8.4c-0.3-0.4-0.8-0.6-1.3-0.6h-22.5
							c-4,0-7.2-3.2-7.2-7.2v-50.2c0-4,3.2-7.2,7.2-7.2h62.5c4,0,7.2,3.2,7.2,7.2v50.2c0,4-3.2,7.2-7.2,7.2h-21.5
							c-0.5,0-0.9,0.2-1.2,0.6l-7.2,8.4C639.3,272.8,638.9,273,638.5,273z M606.9,200.2c-3.3,0-5.9,2.7-5.9,5.9v50.2
							c0,3.3,2.7,5.9,5.9,5.9h22.5c0.9,0,1.7,0.4,2.2,1l6.9,8.4c0,0,0,0,0,0l7.2-8.4c0.5-0.6,1.3-1,2.2-1h21.5
							c3.3,0,5.9-2.7,5.9-5.9v-50.2c0-3.3-2.7-5.9-5.9-5.9H606.9z"/>
					</g>
				</g>
			</g>
		</g>
		<g>
			<g>
				<path fill="#FFFFFF" d="M654.6,234.5l-1.1,0.4l0.7,1c0.3,0.4,0.5,1,0.5,1.5c0,1.2-0.9,2.3-2.1,2.5l-1.1,0.2l0.5,1
					c0.2,0.4,0.3,0.7,0.3,1.1c0,1.3-1,2.4-2.3,2.5l-14.4,0c0,0-1.8,0-3.1-1.1c-0.3-0.2-0.5-0.4-0.8-0.5l-0.3-0.1v-13.3l1.5-1.3
					l5.1-9.4c0.2-0.4,0.4-0.8,0.5-1.2c0.1-0.4,0.1-0.9,0.1-1.3l-0.4-5.3c0.3-0.2,0.7-0.3,1.2-0.3c2.2,0,4.1,3.5,4.1,6.4
					c0,0.4,0,0.8-0.1,1.2l-0.9,5.7h11c0.7,0,1.4,0.3,1.9,0.8c0.5,0.5,0.7,1.1,0.7,1.7c0,0.8-0.4,1.5-1,2l-1,0.8l1.1,0.6
					c0.8,0.4,1.3,1.3,1.3,2.2C656.3,233.3,655.6,234.2,654.6,234.5z"/>
				<path fill="#162020" d="M635.5,245.3c0,0-2,0-3.5-1.3c-0.2-0.2-0.4-0.3-0.7-0.4l-0.7-0.3v-14l1.6-1.4l5-9.3
					c0.2-0.3,0.3-0.7,0.4-1c0.1-0.4,0.1-0.7,0.1-1.1l-0.4-5.7l0.3-0.2c0.4-0.3,1-0.4,1.5-0.4c2.6,0,4.7,3.8,4.7,7
					c0,0.4,0,0.9-0.1,1.3l-0.8,5h10.3c0.9,0,1.7,0.4,2.3,1c0.6,0.6,0.9,1.4,0.9,2.2c0,1-0.5,1.9-1.2,2.5l-0.3,0.2l0.3,0.2
					c1,0.6,1.6,1.6,1.6,2.7c0,1.4-0.9,2.6-2.2,3l-0.3,0.1l0.2,0.2c0.4,0.5,0.6,1.2,0.6,1.9c0,1.5-1.1,2.8-2.6,3.1l-0.3,0l0.1,0.3
					c0.2,0.4,0.4,0.9,0.4,1.4c0,1.6-1.3,3-2.9,3.1L635.5,245.3z M632,242.5c0.3,0.1,0.6,0.3,0.9,0.6c1.1,0.9,2.6,1,2.7,1l14.4,0
					c0.9-0.1,1.7-0.9,1.7-1.9c0-0.3-0.1-0.6-0.2-0.9l-0.9-1.8l2-0.3c0.9-0.2,1.6-0.9,1.6-1.8c0-0.4-0.1-0.8-0.4-1.1l-1.3-1.7l2-0.6
					c0.8-0.2,1.3-1,1.3-1.8c0-0.7-0.4-1.3-1-1.6l-1.9-1.1l1.8-1.3c0.5-0.4,0.7-0.9,0.7-1.5c0-0.5-0.2-0.9-0.5-1.3
					c-0.4-0.4-0.9-0.6-1.5-0.6h-11.7l1-6.4c0.1-0.4,0.1-0.7,0.1-1.1c0-2.7-1.8-5.7-3.4-5.7c-0.2,0-0.3,0-0.5,0.1l0.4,4.8
					c0,0.5,0,1-0.1,1.5c-0.1,0.5-0.3,0.9-0.6,1.4l-5.2,9.5l-1.3,1.1V242.5z"/>
			</g>
			<g>
				<rect x="622" y="227.4" fill="#FFFFFF" width="9.8" height="17.4"/>
				<path fill="#162020" d="M631.8,245.5H622c-0.3,0-0.6-0.3-0.6-0.6v-17.4c0-0.3,0.3-0.6,0.6-0.6h9.8c0.3,0,0.6,0.3,0.6,0.6v17.4
					C632.4,245.2,632.1,245.5,631.8,245.5z M622.6,244.2h8.6V228h-8.6V244.2z"/>
			</g>
		</g>
	</g>
	<g>
		<g>
			<g>
				<polyline fill="#DB61DB" points="535.4,189.5 561.5,171.5 644,171.5 644,91 535,91 535,189.5 				"/>
				<path fill="#162020" d="M535.7,190l-0.4-0.5h-1V90.4h110.2v81.7h-82.9L535.7,190z M535.6,91.6v96.9l25.7-17.7h82V91.6H535.6z"/>
			</g>
		</g>
		<g>
			<g>
				<g>
					<line fill="#C63434" x1="598.8" y1="152.9" x2="550.1" y2="152.9"/>
				</g>
				<g>
					<path fill="#162020" d="M598.8,153.5h-48.7c-0.3,0-0.6-0.3-0.6-0.6s0.3-0.6,0.6-0.6h48.7c0.3,0,0.6,0.3,0.6,0.6
						S599.2,153.5,598.8,153.5z"/>
				</g>
			</g>
			<g>
				<g>
					<line fill="#C63434" x1="628.3" y1="152.9" x2="608.7" y2="152.9"/>
				</g>
				<g>
					<path fill="#162020" d="M628.3,153.5h-19.6c-0.3,0-0.6-0.3-0.6-0.6s0.3-0.6,0.6-0.6h19.6c0.3,0,0.6,0.3,0.6,0.6
						S628.7,153.5,628.3,153.5z"/>
				</g>
			</g>
			<g>
				<g>
					<line fill="#C63434" x1="628.3" y1="133.3" x2="550.1" y2="133.3"/>
				</g>
				<g>
					<path fill="#162020" d="M628.3,133.9h-78.2c-0.3,0-0.6-0.3-0.6-0.6s0.3-0.6,0.6-0.6h78.2c0.3,0,0.6,0.3,0.6,0.6
						S628.7,133.9,628.3,133.9z"/>
				</g>
			</g>
			<g>
				<g>
					<line fill="#C63434" x1="569.1" y1="113.7" x2="549.7" y2="113.7"/>
				</g>
				<g>
					<path fill="#162020" d="M569.1,114.3h-19.4c-0.3,0-0.6-0.3-0.6-0.6s0.3-0.6,0.6-0.6h19.4c0.3,0,0.6,0.3,0.6,0.6
						S569.5,114.3,569.1,114.3z"/>
				</g>
			</g>
			<g>
				<g>
					<line fill="#C63434" x1="628.3" y1="113.7" x2="578.3" y2="113.7"/>
				</g>
				<g>
					<path fill="#162020" d="M628.3,114.3h-50c-0.3,0-0.6-0.3-0.6-0.6s0.3-0.6,0.6-0.6h50c0.3,0,0.6,0.3,0.6,0.6
						S628.7,114.3,628.3,114.3z"/>
				</g>
			</g>
		</g>
	</g>
	<g>
		<g>
			<g>
				<circle fill="#56ADF5" cx="175.3" cy="144.8" r="30.4"/>
				<path fill="#162020" d="M175.3,175.9c-17.1,0-31.1-13.9-31.1-31.1c0-17.1,13.9-31.1,31.1-31.1s31.1,13.9,31.1,31.1
					C206.4,161.9,192.5,175.9,175.3,175.9z M175.3,115c-16.4,0-29.8,13.4-29.8,29.8s13.4,29.8,29.8,29.8s29.8-13.4,29.8-29.8
					S191.8,115,175.3,115z"/>
			</g>
		</g>
		<g>
			<g>
				<g>
					<polygon fill="#FFFFFF" points="163.7,162.2 192.9,145.3 163.7,128.5 					"/>
				</g>
				<g>
					<path fill="#162020" d="M163.1,163.3v-35.9l31.1,17.9L163.1,163.3z M164.4,129.6v31.5l27.3-15.8L164.4,129.6z"/>
				</g>
			</g>
		</g>
	</g>
</g>
</svg>
